<svg xmlns="http://www.w3.org/2000/svg" xmlns:xlink="http://www.w3.org/1999/xlink" width="80" height="79" viewBox="0 0 80 79"><defs><path id="cjoha" d="M115.4 1486l5.18 40.29c.23 1.86 1.64 3.02 3.52 3.02h57.8c1.88 0 3.29-1.4 3.52-3.02l5.17-40.28a3.56 3.56 0 0 0-3.52-3.96h-68.14a3.56 3.56 0 0 0-3.52 3.96z"/><path id="cjohb" d="M190.36 1484.38a47.36 47.36 0 0 0-14.34-2.1h11.05c1.4-.23 2.58.7 3.29 2.1z"/><path id="cjohc" d="M118.93 1484.38c-.47 0-.7.23-.94.46-.23.23-.47.47-.23.93l5.17 40.28c0 .7.7 1.17 1.17 1.17h57.8c.7 0 1.17-.47 1.17-1.17l5.17-40.28c0-.46-.23-.93-.23-.93-.24-.23-.47-.46-.94-.46h-68.14zm62.97 47.5h-57.8c-3.05 0-5.64-2.33-5.87-5.13l-5.17-40.28a5.83 5.83 0 0 1 1.4-4.66 5.8 5.8 0 0 1 4.47-2.1h68.14c1.64 0 3.29.7 4.46 2.1a5.83 5.83 0 0 1 1.41 4.66l-5.17 40.05c-.47 3.03-2.82 5.35-5.87 5.35z"/><path id="cjohd" d="M134.67 1516.04a4.44 4.44 0 0 1-4.46-4.42v-13.5a4.44 4.44 0 0 1 4.46-4.43 4.6 4.6 0 0 1 4.47 4.42v13.5c.23 2.34-1.88 4.43-4.47 4.43z"/><path id="cjohe" d="M153 1516.04a4.44 4.44 0 0 1-4.46-4.42v-13.5a4.44 4.44 0 0 1 4.46-4.43c2.58 0 4.46 2.1 4.46 4.42v13.5a4.44 4.44 0 0 1-4.46 4.43z"/><path id="cjohf" d="M171.33 1516.04a4.44 4.44 0 0 1-4.47-4.42v-13.5a4.44 4.44 0 0 1 4.47-4.43c2.58 0 4.46 2.1 4.46 4.42v13.5a4.44 4.44 0 0 1-4.46 4.43z"/><path id="cjohg" d="M128.8 1479.72h48.16l-2.11-16.53c0-.24-.24-.24-.47-.24h-43c-.23 0-.23.24-.23.24zm53.57 4.66h-58.74l2.82-21.66a4.86 4.86 0 0 1 4.93-4.42h43.24c2.58 0 4.7 1.86 4.93 4.42z"/><path id="cjohh" d="M161.93 1465.05h-17.86a4.44 4.44 0 0 1-4.46-4.42 4.6 4.6 0 0 1 4.46-4.43h17.86c2.58 0 4.46 2.1 4.46 4.43a4.44 4.44 0 0 1-4.46 4.42z"/><path id="cjohi" d="M144.07 1458.3a2.1 2.1 0 1 0 0 4.19h17.86a2.1 2.1 0 1 0 0-4.2zm17.86 9.08h-17.86a6.79 6.79 0 0 1-6.81-6.75 6.79 6.79 0 0 1 6.81-6.76h17.86a6.79 6.79 0 0 1 6.81 6.76 6.79 6.79 0 0 1-6.81 6.75z"/><path id="cjohj" d="M134.67 1495.78a2.1 2.1 0 0 0-2.11 2.1v13.5c0 1.17.94 2.1 2.11 2.1a2.1 2.1 0 0 0 2.12-2.1v-13.5c.23-.93-.94-2.1-2.12-2.1zm0 22.59a6.79 6.79 0 0 1-6.81-6.75v-13.5a6.79 6.79 0 0 1 6.81-6.76 6.79 6.79 0 0 1 6.82 6.75v13.5c.23 3.73-3.06 6.76-6.82 6.76z"/><path id="cjohk" d="M153 1495.78a2.1 2.1 0 0 0-2.11 2.1v13.5c0 1.17.93 2.1 2.11 2.1a2.1 2.1 0 0 0 2.11-2.1v-13.5c0-.93-.94-2.1-2.11-2.1zm0 22.59a6.79 6.79 0 0 1-6.81-6.75v-13.5a6.79 6.79 0 0 1 6.81-6.76 6.79 6.79 0 0 1 6.81 6.75v13.5a6.79 6.79 0 0 1-6.81 6.76z"/><path id="cjohl" d="M171.33 1495.78a2.1 2.1 0 0 0-2.12 2.1v13.5c0 1.17.94 2.1 2.12 2.1a2.1 2.1 0 0 0 2.11-2.1v-13.5c0-.93-.94-2.1-2.11-2.1zm0 22.59a6.79 6.79 0 0 1-6.82-6.75v-13.5a6.79 6.79 0 0 1 6.82-6.76 6.79 6.79 0 0 1 6.8 6.75v13.5a6.79 6.79 0 0 1-6.8 6.76z"/></defs><g><g transform="translate(-113 -1453)"><g opacity=".4"><use fill="#3dad4b" xlink:href="#cjoha"/></g><g opacity=".1"><g opacity=".1"><use fill="#030303" xlink:href="#cjohb"/></g></g><g><use fill="#3dad4b" xlink:href="#cjohc"/></g><g><g><use fill="#fff" xlink:href="#cjohd"/></g><g><use fill="#fff" xlink:href="#cjohe"/></g><g><use fill="#fff" xlink:href="#cjohf"/></g></g><g><use fill="#3dad4b" xlink:href="#cjohg"/></g><g><use fill="#b0deb6" xlink:href="#cjohh"/></g><g><g><use fill="#3dad4b" xlink:href="#cjohi"/></g><g><use fill="#3dad4b" xlink:href="#cjohj"/></g><g><use fill="#3dad4b" xlink:href="#cjohk"/></g><g><use fill="#3dad4b" xlink:href="#cjohl"/></g></g></g></g></svg>