<svg xmlns="http://www.w3.org/2000/svg" xmlns:xlink="http://www.w3.org/1999/xlink" width="26" height="26" viewBox="0 0 26 26"><defs><path id="x3k0a" d="M181.51 1275.85a1.08 1.08 0 1 0 0-2.17h-9.03a1.08 1.08 0 1 0 0 2.17zm0 5.41a1.08 1.08 0 1 0 0-2.16h-9.03a1.08 1.08 0 1 0 0 2.16zm-4.51-19.1a6.9 6.9 0 0 1 6.88 6.78h-13.77a6.9 6.9 0 0 1 6.89-6.77zm-10.64 8.95h21.28l-2.16 12.72h-16.96zm20.03 14.89c.53 0 .98-.38 1.07-.9l2.53-14.9a1.1 1.1 0 0 0-1.07-1.25h-2.86a9.07 9.07 0 0 0-18.11 0h-2.87c-1.02.08-1.12.95-1.07 1.26l2.53 14.89c.09.52.54.9 1.07.9z"/></defs><g><g transform="translate(-164 -1260)"><use xlink:href="#x3k0a"/></g></g></svg>