<svg xmlns="http://www.w3.org/2000/svg" xmlns:xlink="http://www.w3.org/1999/xlink" width="34" height="29" viewBox="0 0 34 29"><defs><path id="edjxa" d="M298.36 1599.92h-1.73c-.64 0-1.15.52-1.15 1.16v3.48c0 .64.51 1.16 1.15 1.16h3.46z"/><path id="edjxb" d="M301.24 1615a4.05 4.05 0 0 1-4.03-4.06c0-2.24 1.8-4.06 4.03-4.06a4.05 4.05 0 0 1 4.03 4.06c0 2.24-1.8 4.06-4.03 4.06z"/><path id="edjxc" d="M275.9 1610.94a3.47 3.47 0 0 1 3.45-3.48c1.91 0 3.46 1.56 3.46 3.48a3.47 3.47 0 0 1-3.46 3.48 3.47 3.47 0 0 1-3.45-3.48z"/><path id="edjxd" d="M279.35 1608.04a2.89 2.89 0 0 0-2.88 2.9c0 1.6 1.3 2.9 2.88 2.9 1.6 0 2.88-1.3 2.88-2.9a2.9 2.9 0 0 0-2.88-2.9zm0 6.96a4.05 4.05 0 0 1-4.03-4.06c0-2.24 1.8-4.06 4.03-4.06a4.05 4.05 0 0 1 4.03 4.06c0 2.24-1.8 4.06-4.03 4.06z"/><path id="edjxe" d="M298.36 1591.22h-1.15v-2.08l-1.4-1.4.82-.82 1.56 1.57c.1.1.17.26.17.41v2.32z"/><path id="edjxf" d="M295.48 1586h1.15v2.9h-1.15z"/><path id="edjxg" d="M297.2 1590.06h1.16v.58h-1.15z"/><path id="edjxh" d="M295.48 1587.74h1.15v1.16h-1.15z"/><path id="edjxi" d="M291.34 1593.09l4.01-.81.23 1.14-4.01.8z"/><path id="edjxj" d="M280.5 1599.34v-2.9c0-.32.26-.58.58-.58h8.64c.32 0 .57.26.57.58v1.74z"/><path id="edjxk" d="M279.35 1612.1c-.64 0-1.15-.52-1.15-1.16 0-.64.51-1.16 1.15-1.16.64 0 1.15.52 1.15 1.16 0 .64-.51 1.16-1.15 1.16z"/><path id="edjxl" d="M301.24 1612.1c-.64 0-1.15-.52-1.15-1.16 0-.64.51-1.16 1.15-1.16.63 0 1.15.52 1.15 1.16 0 .64-.52 1.16-1.15 1.16z"/><path id="edjxm" d="M279.35 1599.34h-3.45c-.64 0-1.16.52-1.16 1.16v3.48z"/><path id="edjxn" d="M273.6 1608.62h29.37v2.32h-29.38z"/><path id="edjxo" d="M290.3 1608.62v2.32h-16.7v-2.32a10.4 10.4 0 0 1 10.36-10.44h6.33l-1.16 2.63a6.42 6.42 0 0 0 0 5.18z"/><path id="edjxp" d="M301.81 1605.72l.15.46h-2.26l-.19-.46-3.46-11.6-.57-1.16h2.3l.58 1.16z"/><path id="edjxq" d="M296.63 1590.64h3.26v3.48h-3.26c-.95 0-1.73-.78-1.73-1.74s.78-1.74 1.73-1.74z"/><path id="edjxr" d="M306.42 1610.94a5.21 5.21 0 0 0-4.9-5.5 5.2 5.2 0 0 0-5.47 5.5z"/><path id="edjxs" d="M285.11 1610.94a5.64 5.64 0 0 0-5.76-5.51 5.64 5.64 0 0 0-5.76 5.51z"/><path id="edjxt" d="M298.93 1590.64h1.73c.32 0 .58.26.58.58v2.32c0 .32-.26.58-.58.58h-1.73v-3.48z"/><path id="edjxu" d="M279.35 1615a4.05 4.05 0 0 1-4.03-4.06.58.58 0 1 1 1.15 0c0 1.6 1.3 2.9 2.88 2.9a2.9 2.9 0 0 0 2.88-2.9.58.58 0 1 1 1.15 0c0 2.24-1.8 4.06-4.03 4.06z"/><path id="edjxv" d="M301.24 1615a4.05 4.05 0 0 1-4.03-4.06c0-.32.25-.58.57-.58.32 0 .58.26.58.58 0 1.6 1.29 2.9 2.88 2.9a2.9 2.9 0 0 0 2.88-2.9c0-.32.26-.58.57-.58.32 0 .58.26.58.58 0 2.24-1.81 4.06-4.03 4.06z"/><path id="edjxw" d="M279.93 1610.94a.58.58 0 0 1-1.15 0"/><path id="edjxx" d="M279.35 1612.1c-.63 0-1.15-.52-1.15-1.16v-.58h1.15v.58-.58h1.15v.58c0 .64-.51 1.16-1.15 1.16z"/><path id="edjxy" d="M301.81 1610.94c0 .32-.25.58-.57.58a.58.58 0 0 1-.58-.58"/><path id="edjxz" d="M301.24 1612.1c-.64 0-1.15-.52-1.15-1.16v-.58h1.15v.58-.58h1.15v.58c0 .64-.52 1.16-1.15 1.16z"/><path id="edjxA" d="M275.9 1599.92a.58.58 0 0 0-.58.58v1.5l2.06-2.08zm-1.73 4.88v-4.3c0-.96.77-1.74 1.73-1.74h4.27z"/><path id="edjxB" d="M273.02 1611.52v-3.48h1.15v3.48z"/><path id="edjxC" d="M284.54 1611.52v-1.16h12.1v1.16z"/><path id="edjxD" d="M284.54 1609.2v-1.16h12.1v1.16z"/><path id="edjxE" d="M290.3 1609.2h-5.38a.58.58 0 0 1-.58-.58c0-.32.26-.58.58-.58h4.49l-.8-1.81c-.8-1.8-.8-3.86 0-5.66l.8-1.81h-5.45c-5.4 0-9.8 4.42-9.8 9.86 0 .32-.25.58-.57.58a.58.58 0 0 1-.57-.58 11 11 0 0 1 10.94-11.02h6.33c.2 0 .38.1.49.26.1.17.12.38.04.56l-1.16 2.62a5.84 5.84 0 0 0 0 4.72l1.16 2.62a.58.58 0 0 1-.53.82z"/><path id="edjxF" d="M281.67 1597.6h8.05v-1.16h-8.03zm8.62 1.16h-9.21a.58.58 0 0 1-.58-.58v-1.74a1.2 1.2 0 0 1 1.21-1.16h7.97c.63-.01 1.17.5 1.19 1.14v1.76c0 .32-.26.58-.58.58z"/><path id="edjxG" d="M299.12 1606.44l-3.84-12.9h3.5l3.24 10.84-1.1.33-3-10.01h-1.1l3.4 11.4z"/><path id="edjxH" d="M302.36 1605.53l-1.1.33-.68-2.26 1.1-.33z"/><path id="edjxI" d="M296.63 1591.22c-.64 0-1.15.52-1.15 1.16 0 .64.51 1.16 1.15 1.16h1.73v-2.32zm2.88 3.48h-2.88a2.31 2.31 0 0 1-2.3-2.32 2.31 2.31 0 0 1 2.3-2.32h2.88z"/><path id="edjxJ" d="M274.22 1610.36h10.26a5.05 5.05 0 0 0-5.12-4.35 5.08 5.08 0 0 0-5.14 4.35zm11.48 1.16H273l.02-.6a6.24 6.24 0 0 1 6.34-6.07 6.22 6.22 0 0 1 6.33 6.07z"/><path id="edjxK" d="M295.58 1593.42l-4 .8-.23-1.13 4-.81z"/><path id="edjxL" d="M299.51 1593.54h1.15v-2.32h-1.15zm1.15 1.16h-2.3v-4.64h2.3c.64 0 1.15.52 1.15 1.16v2.32c0 .64-.51 1.16-1.15 1.16z"/><path id="edjxM" d="M296.63 1600.5a.58.58 0 0 0-.58.58v3.48c0 .32.26.58.58.58h2.1l-1.38-4.64h-.72zm2.88 5.8h-2.88c-.95 0-1.73-.78-1.73-1.74v-3.48c0-.96.78-1.74 1.73-1.74h1.15c.26 0 .48.17.55.41l1.73 5.8c.05.18.02.37-.09.52a.58.58 0 0 1-.46.23z"/><path id="edjxN" d="M298.36 1591.22h-1.15v-2.08l-1.4-1.4.82-.82 1.56 1.57c.1.1.17.26.17.41v2.32z"/><path id="edjxO" d="M295.48 1588.9v-2.9h1.15v2.9z"/><path id="edjxP" d="M279.35 1602.82v-1.74h1.15v1.74z"/><path id="edjxQ" d="M281.66 1602.82v-1.74h1.15v1.74z"/><path id="edjxR" d="M283.96 1602.82v-1.74h1.15v1.74z"/><path id="edjxS" d="M277.62 1608.62h3.46"/><path id="edjxT" d="M277.05 1609.2v-1.16h4.6v1.16z"/><path id="edjxU" d="M296.65 1610.36h9.18a4.78 4.78 0 0 0-4.6-4.35 4.78 4.78 0 0 0-4.58 4.35zm10.33 1.16H295.5l-.01-.56a5.94 5.94 0 0 1 5.74-6.11h.03a5.94 5.94 0 0 1 5.75 6.1z"/></defs><g><g transform="translate(-273 -1586)"><g opacity=".3"><use fill="#3dad4b" xlink:href="#edjxa"/></g><g opacity=".3"><use fill="#3dad4b" xlink:href="#edjxb"/></g><g opacity=".3"><g opacity=".3"><use fill="#3dad4b" xlink:href="#edjxc"/></g></g><g><use fill="#6c7175" xlink:href="#edjxd"/></g><g><use fill="#eaeae8" xlink:href="#edjxe"/></g><g><use fill="#dbdbdb" xlink:href="#edjxf"/></g><g><g><use fill="#b9b9b9" xlink:href="#edjxg"/></g><g><use fill="#b9b9b9" xlink:href="#edjxh"/></g></g><g><use fill="#b47923" xlink:href="#edjxi"/></g><g opacity=".3"><use fill="#3dad4b" xlink:href="#edjxj"/></g><g><g><use fill="#277baa" xlink:href="#edjxk"/></g><g><use fill="#277baa" xlink:href="#edjxl"/></g></g><g><use fill="#f0f0f0" xlink:href="#edjxm"/></g><g opacity=".3"><g opacity=".3"><use fill="#3dad4b" xlink:href="#edjxn"/></g><g opacity=".3"><use fill="#3dad4b" xlink:href="#edjxo"/></g><g opacity=".3"><use fill="#3dad4b" xlink:href="#edjxp"/></g></g><g opacity=".3"><use fill="#3dad4b" xlink:href="#edjxq"/></g><g><g><use fill="#3dad4b" xlink:href="#edjxr"/></g><g><use fill="#3dad4b" xlink:href="#edjxs"/></g></g><g opacity=".3"><use fill="#3dad4b" xlink:href="#edjxt"/></g><g><use fill="#3dad4b" xlink:href="#edjxu"/></g><g><use fill="#3dad4b" xlink:href="#edjxv"/></g><g><use fill="#fff" xlink:href="#edjxw"/></g><g><use fill="#3dad4b" xlink:href="#edjxx"/></g><g><use fill="#fff" xlink:href="#edjxy"/></g><g><use fill="#3dad4b" xlink:href="#edjxz"/></g><g><use fill="#3dad4b" xlink:href="#edjxA"/></g><g><use fill="#3dad4b" xlink:href="#edjxB"/></g><g><use fill="#3dad4b" xlink:href="#edjxC"/></g><g><use fill="#3dad4b" xlink:href="#edjxD"/></g><g><use fill="#3dad4b" xlink:href="#edjxE"/></g><g><use fill="#3dad4b" xlink:href="#edjxF"/></g><g><use fill="#3dad4b" xlink:href="#edjxG"/></g><g><use fill="#3dad4b" xlink:href="#edjxH"/></g><g><use fill="#3dad4b" xlink:href="#edjxI"/></g><g><use fill="#3dad4b" xlink:href="#edjxJ"/></g><g><use fill="#3dad4b" xlink:href="#edjxK"/></g><g><use fill="#3dad4b" xlink:href="#edjxL"/></g><g><use fill="#3dad4b" xlink:href="#edjxM"/></g><g><use fill="#3dad4b" xlink:href="#edjxN"/></g><g><use fill="#3dad4b" xlink:href="#edjxO"/></g><g><use fill="#3dad4b" xlink:href="#edjxP"/></g><g><use fill="#3dad4b" xlink:href="#edjxQ"/></g><g><use fill="#3dad4b" xlink:href="#edjxR"/></g><g><use fill="#fff" xlink:href="#edjxS"/></g><g><use fill="#3dad4b" xlink:href="#edjxT"/></g><g><use fill="#3dad4b" xlink:href="#edjxU"/></g></g></g></svg>