<svg xmlns="http://www.w3.org/2000/svg" xmlns:xlink="http://www.w3.org/1999/xlink" width="28" height="19" viewBox="0 0 28 19"><defs><path id="q1kna" d="M351.22 6584.38c.18 0 .33-.15.33-.33v-1.02a.33.33 0 0 0-.33-.33h-5.07a.33.33 0 0 0-.33.33v1.02c0 .18.15.33.33.33zm12.61 0a2.33 2.33 0 0 0 2.31-2.35c0-1.3-1.03-2.34-2.31-2.34-.53 0-1.01.17-1.4.48-.39-.3-.88-.48-1.4-.48a2.33 2.33 0 0 0-2.32 2.34c0 1.3 1.04 2.35 2.32 2.35.52 0 1.01-.18 1.4-.48.39.3.87.48 1.4.48zm-18.48-13.5h21.3c.83 0 1.5.68 1.5 1.52v1.34h-24.3v-1.34c0-.84.67-1.52 1.5-1.52zm-1.5 5.54h24.3v8.18a1.5 1.5 0 0 1-1.5 1.52h-21.3a1.5 1.5 0 0 1-1.5-1.52zm22.8 11.58a3.38 3.38 0 0 0 3.35-3.4v-12.2c0-1.88-1.5-3.4-3.35-3.4h-21.3a3.38 3.38 0 0 0-3.35 3.4v12.2c0 1.88 1.5 3.4 3.35 3.4z"/></defs><g><g transform="translate(-342 -6569)"><use xlink:href="#q1kna"/></g></g></svg>