<svg xmlns="http://www.w3.org/2000/svg" xmlns:xlink="http://www.w3.org/1999/xlink" width="48" height="49" viewBox="0 0 48 49"><defs><path id="4wgpa" d="M212.54 1204.04l5.47-2.2-1.64 6.03-6.02 1.64zm-8.89 11.44l15.98-4.35 4.36-15.98-14.53 5.8z"/><path id="4wgpb" d="M233.9 1207.5a20.04 20.04 0 0 1-17.9 17.9v-3.9h-4v3.9a20.03 20.03 0 0 1-17.9-17.9h3.9v-4h-3.9a20.03 20.03 0 0 1 17.9-17.9v4.9h4v-4.9a20.03 20.03 0 0 1 17.9 17.9H229v4zm4.01-4a24.03 24.03 0 0 0-21.91-21.91v-.1h-4v.1a24.03 24.03 0 0 0-21.91 21.9H190v4h.09a24.03 24.03 0 0 0 21.91 21.92v.09h4v-.1a24.03 24.03 0 0 0 21.91-21.9h.09v-4z"/></defs><g><g transform="translate(-190 -1181)"><g><g><g><use xlink:href="#4wgpa"/></g><g><use xlink:href="#4wgpb"/></g></g></g></g></g></svg>