<svg xmlns="http://www.w3.org/2000/svg" xmlns:xlink="http://www.w3.org/1999/xlink" width="94" height="88" viewBox="0 0 94 88"><defs><path id="eds8a" d="M190.34 1769.1v-8.66h12.27v8.65zm-72.95-8.66h12.27v8.65H117.4zm72.89-30.61c-.17-2.74-.7-5.4-1.54-7.9l11.35-4.72a42.73 42.73 0 0 1 2.48 12.62h-12.3zm.06 13.35v-9.44h12.27v9.44zm0 3.9h12.27v9.45h-12.27zm-11.64 19.73h7.75v2.28h-7.75zm-11.02 0h.64a1.95 1.95 0 1 0 0-3.9h-.64v-2.63h7.14v2.63h-.64a1.95 1.95 0 1 0 0 3.9h.64v2.28h-7.14zm-11.47 0h.63a1.95 1.95 0 1 0 0-3.9h-.63v-2.63h7.58v2.63h-.63a1.95 1.95 0 1 0 0 3.9h.63v2.28h-7.58zm-11.03 0h.64a1.95 1.95 0 1 0 0-3.9h-.64v-2.63h7.14v2.63h-.64a1.95 1.95 0 1 0 0 3.9h.64v2.28h-7.14zm-11.63 0h7.75v2.28h-7.75zm-3.89-19.72v9.44H117.4v-9.44zm0-13.35v9.44H117.4v-9.44zm1.6-11.8a30.42 30.42 0 0 0-1.54 7.89h-12.29c.2-4.41 1.05-8.65 2.48-12.62zm5.94-10.3a30.61 30.61 0 0 0-4.45 6.69l-11.35-4.73a42.99 42.99 0 0 1 7.11-10.7zm9.4-7.26a30.44 30.44 0 0 0-6.65 4.49l-8.7-8.73a42.75 42.75 0 0 1 10.65-7.17zm11.46-3.08c-2.74.18-5.38.72-7.87 1.58l-4.7-11.41a42.17 42.17 0 0 1 12.57-2.52zm11.75 1.58a30 30 0 0 0-7.87-1.58v-12.35c4.4.2 8.62 1.07 12.58 2.52zm10.24 6c-2-1.79-4.23-3.3-6.65-4.5l4.7-11.41a42.75 42.75 0 0 1 10.64 7.17zm2.75 2.76l8.69-8.73a42.99 42.99 0 0 1 7.11 10.7l-11.35 4.72a30.6 30.6 0 0 0-4.45-6.7zm-.43 39.63h-2.71a4.86 4.86 0 0 0-4.84 4.87v.24h-29.64v-.24a4.86 4.86 0 0 0-4.84-4.87h-2.71c-1.08 0-1.95.88-1.95 1.96s.87 1.95 1.95 1.95h2.71c.53 0 .96.43.96.96v6.77h-7.75v-31.18a26.55 26.55 0 0 1 26.45-26.58 26.55 26.55 0 0 1 26.45 26.58v31.18h-7.75v-6.77c0-.53.43-.96.96-.96h2.71a1.95 1.95 0 1 0 0-3.9zM160 1685c-25.64 0-46.5 20.96-46.5 46.73v39.32c0 1.08.87 1.95 1.94 1.95h89.12c1.07 0 1.94-.87 1.94-1.95v-39.32c0-25.77-20.86-46.73-46.5-46.73z"/><path id="eds8b" d="M160.22 1747.37c-2.53-2.14-.95-5.43-.76-5.78l.12-.28c1.77-5.16-1.5-11.27-5.3-14.76a1.94 1.94 0 0 0-2.24-.27 1.96 1.96 0 0 0-.98 2.05c.35 2.04-.7 3.14-3.4 5.34-2.1 1.71-4.7 3.84-5.78 7.35a9.92 9.92 0 0 0 .05 5.88 1.94 1.94 0 1 0 3.72-1.14 5.99 5.99 0 0 1-.06-3.58c.74-2.38 2.57-3.89 4.52-5.48 1.5-1.22 3.12-2.54 4.07-4.3 1.7 2.59 2.42 5.42 1.76 7.51-1.13 2.27-2.12 7.16 1.78 10.45a1.93 1.93 0 0 0 2.74-.24c.7-.82.58-2.05-.24-2.75z"/><path id="eds8c" d="M176.33 1726.96l.18-.32c.44-.77.3-1.74-.31-2.36a1.94 1.94 0 0 0-2.35-.3c-5.8 3.38-9.17 8.06-8.81 12.22a1.95 1.95 0 1 0 3.87-.34c-.14-1.6.91-3.56 2.8-5.42.22 2.08 1.1 4.87 3.05 9.05 1.57 3.4.8 6.8-2.3 10.1a1.96 1.96 0 0 0 1.42 3.3c.51 0 1.03-.2 1.41-.62 4.18-4.46 5.24-9.59 2.99-14.44-3.67-7.9-2.88-9.28-1.95-10.87z"/><path id="eds8d" d="M168.3 1726.47c0-3.27-2.7-7.27-5.38-9.78a1.94 1.94 0 0 0-3.26 1.62c.35 3.46-2.77 6.56-2.8 6.6-.78.74-.8 1.98-.06 2.75.74.78 1.97.8 2.75.06.13-.12 2.18-2.13 3.3-5.1.96 1.44 1.57 2.87 1.57 3.85a1.95 1.95 0 1 0 3.88 0z"/></defs><g><g transform="translate(-113 -1685)"><g><use fill="#cbbaac" xlink:href="#eds8a"/></g><g><use fill="#cbbaac" xlink:href="#eds8b"/></g><g><use fill="#cbbaac" xlink:href="#eds8c"/></g><g><use fill="#cbbaac" xlink:href="#eds8d"/></g></g></g></svg>