<svg xmlns="http://www.w3.org/2000/svg" xmlns:xlink="http://www.w3.org/1999/xlink" width="50" height="66" viewBox="0 0 50 66"><defs><path id="gc8sa" d="M638.33 1040.9v-12.1h26.46v12.1z"/><path id="gc8sb" d="M663.84 1011.82l-12.26 12.23a2.53 2.53 0 0 1-3.57 0l-10.68-10.65h-7.26c-.64.31-2.38-.81-1.71-.24l11.92 11.85c.08.08.17.14.26.2v3.59h22.05v-4.96a8.22 8.22 0 0 0 1.25-12.02z"/><path id="gc8sc" d="M646.05 1034.85a2.75 2.75 0 1 1 5.5 0 2.75 2.75 0 0 1-5.5 0z"/><path id="gc8sd" d="M647.05 988.87a3.85 3.85 0 1 0-5.08-5.07z"/><path id="gc8se" d="M652.56 994.37a3.85 3.85 0 1 0-5.08-5.07z"/><path id="gc8sf" d="M658.07 999.87a3.85 3.85 0 1 0-5.07-5.07z"/><path id="gc8sg" d="M663.59 1005.37a3.85 3.85 0 1 0-5.08-5.07z"/><path id="gc8sh" d="M665.16 1006.94l-29.17-29.1a2.53 2.53 0 0 0-3.58 0l-13.57 13.54a2.52 2.52 0 0 0 0 3.57l10.82 10.8c.13-.03.27-.04.4-.05h11.03a3.85 3.85 0 1 1 0 7.7h-3.76l10.68 10.65a2.53 2.53 0 0 0 3.57 0l13.58-13.54c.98-.99.98-2.59 0-3.57z"/><path id="gc8si" d="M636 977.84a2.53 2.53 0 0 0-3.59 0l-13.57 13.54a2.52 2.52 0 0 0 0 3.57l3.37 3.36 17.15-17.11z"/><path id="gc8sj" d="M639.44 1039.8h24.25v-9.9h-24.25zm25.35 2.2h-26.46a1.1 1.1 0 0 1-1.1-1.1v-12.1a1.1 1.1 0 0 1 1.1-1.1h26.46a1.1 1.1 0 0 1 1.1 1.1v12.1a1.1 1.1 0 0 1-1.1 1.1z"/><path id="gc8sk" d="M639.44 1039.8h15.43v-3.77a6.15 6.15 0 0 0-6.14-6.13h-9.3v9.9zm16.53 2.2h-17.64a1.1 1.1 0 0 1-1.1-1.1v-12.1a1.1 1.1 0 0 1 1.1-1.1h10.4a8.35 8.35 0 0 1 8.35 8.33v4.87a1.1 1.1 0 0 1-1.1 1.1z"/><path id="gc8sl" d="M648.8 1033.2a1.65 1.65 0 1 0 0 3.3 1.65 1.65 0 0 0 0-3.3zm0 5.5a3.85 3.85 0 1 1 0-7.7 3.85 3.85 0 0 1 0 7.7z"/><path id="gc8sm" d="M643.35 983.63l3.87 3.86a2.74 2.74 0 0 0-1.1-4.82 2.76 2.76 0 0 0-2.77.96zm3.7 6.34c-.3 0-.57-.11-.78-.32l-5.08-5.07a1.1 1.1 0 0 1-.23-1.22 4.96 4.96 0 1 1 6.53 6.52c-.14.06-.29.1-.44.1z"/><path id="gc8sn" d="M648.87 989.13l3.87 3.86a2.74 2.74 0 0 0-1.11-4.82 2.76 2.76 0 0 0-2.76.96zm3.7 6.34c-.3 0-.58-.11-.79-.32l-5.08-5.07a1.1 1.1 0 0 1-.23-1.22 4.96 4.96 0 1 1 6.53 6.52c-.13.06-.29.1-.44.1z"/><path id="gc8so" d="M654.38 994.63l3.87 3.86a2.74 2.74 0 0 0-1.1-4.82 2.76 2.76 0 0 0-2.77.96zm3.7 6.34c-.3 0-.58-.11-.79-.32l-5.07-5.07a1.1 1.1 0 0 1-.23-1.22 4.96 4.96 0 1 1 6.53 6.52c-.14.06-.3.1-.45.1z"/><path id="gc8sp" d="M659.9 1000.13l3.86 3.86a2.74 2.74 0 0 0-1.1-4.82 2.76 2.76 0 0 0-2.77.96zm3.69 6.34c-.3 0-.58-.11-.78-.32l-5.08-5.07a1.1 1.1 0 0 1-.23-1.22 4.96 4.96 0 1 1 6.53 6.52c-.14.06-.3.1-.44.1z"/><path id="gc8sq" d="M630.07 1005.7h11.02a3.85 3.85 0 0 1 0 7.7h-11.02a3.85 3.85 0 0 1 0-7.7z"/><path id="gc8sr" d="M630.07 1006.8a2.75 2.75 0 1 0 0 5.5h11.02a2.75 2.75 0 1 0 0-5.5zm11.02 7.7h-11.02a4.96 4.96 0 1 1 0-9.9h11.02a4.96 4.96 0 1 1 0 9.9z"/><path id="gc8ss" d="M650.46 1012.3a3.3 3.3 0 1 1 6.6 0 3.3 3.3 0 0 1-6.6 0z"/><path id="gc8st" d="M653.77 1010.1a2.2 2.2 0 1 0 0 4.4 2.2 2.2 0 0 0 0-4.4zm0 6.6a4.4 4.4 0 1 1-.01-8.81 4.4 4.4 0 0 1 0 8.8z"/><path id="gc8su" d="M627.31 989.2a1.1 1.1 0 0 1-.78-1.88l2.2-2.2a1.1 1.1 0 0 1 1.56 0 1.1 1.1 0 0 1 0 1.56l-2.2 2.2c-.2.2-.49.32-.78.32z"/><path id="gc8sv" d="M640 1014.5l8.78 8.77c.56.56 1.47.56 2.02 0l13.58-13.54c.55-.56.55-1.46 0-2.01l-29.17-29.1a1.43 1.43 0 0 0-2.02 0l-13.57 13.54a1.43 1.43 0 0 0 0 2.01l10.45 10.43h11.02a4.96 4.96 0 1 1 0 9.9zm9.8 11.39c-.97 0-1.9-.38-2.57-1.06l-10.68-10.65a1.1 1.1 0 0 1 .78-1.88h3.76a2.75 2.75 0 1 0 0-5.5h-11.02c-.05 0-.1 0-.14.02l-.15.01a1.1 1.1 0 0 1-.9-.31l-10.82-10.8a3.63 3.63 0 0 1 0-5.12l13.57-13.54a3.72 3.72 0 0 1 5.14 0l29.17 29.1a3.62 3.62 0 0 1 0 5.12l-13.58 13.55a3.63 3.63 0 0 1-2.57 1.06z"/><path id="gc8sw" d="M641.64 1027.7h19.85v-3.86c0-.35.16-.67.44-.88a7.11 7.11 0 0 0 1.79-9.46l-11.36 11.33a3.64 3.64 0 0 1-5.13 0l-10.36-10.33h-5.6l9.79 9.73.2.15c.24.21.38.52.38.84v2.48zm20.95 2.2h-22.05a1.1 1.1 0 0 1-1.1-1.1v-3.08l-11.86-11.78c-.5-.34-.64-1.01-.31-1.52a1.25 1.25 0 0 1 1.68-.33c.25.1.51.2.78.26.11-.03.22-.05.34-.05h7.26c.3 0 .57.12.78.32l10.67 10.65c.56.56 1.47.56 2.02 0l12.26-12.23c.21-.23.51-.34.82-.32.3 0 .59.14.79.37a9.3 9.3 0 0 1-.98 13.28v4.43a1.1 1.1 0 0 1-1.1 1.1z"/><path id="gc8sx" d="M634.2 978.2c-.38 0-.74.15-1 .42l-13.58 13.54a1.43 1.43 0 0 0 0 2.01l2.59 2.59 15.6-15.56-2.6-2.58a1.42 1.42 0 0 0-1-.42zm-12 21.21c-.28 0-.56-.11-.77-.32l-3.37-3.36a3.63 3.63 0 0 1 0-5.13l13.57-13.54a3.64 3.64 0 0 1 5.14 0l3.37 3.36a1.1 1.1 0 0 1 0 1.56l-17.15 17.1c-.2.22-.49.33-.78.33z"/></defs><g><g transform="translate(-617 -976)"><g><use xlink:href="#gc8sa"/></g><g><use xlink:href="#gc8sb"/></g><g><use xlink:href="#gc8sc"/></g><g><g><use xlink:href="#gc8sd"/></g><g><use xlink:href="#gc8se"/></g><g><use xlink:href="#gc8sf"/></g><g><use xlink:href="#gc8sg"/></g></g><g><use xlink:href="#gc8sh"/></g><g><use xlink:href="#gc8si"/></g><g><g><use xlink:href="#gc8sj"/></g><g><use xlink:href="#gc8sk"/></g><g><use xlink:href="#gc8sl"/></g><g><use xlink:href="#gc8sm"/></g><g><use xlink:href="#gc8sn"/></g><g><use xlink:href="#gc8so"/></g><g><use xlink:href="#gc8sp"/></g></g><g><use xlink:href="#gc8sq"/></g><g><use xlink:href="#gc8sr"/></g><g><use xlink:href="#gc8ss"/></g><g><g><use xlink:href="#gc8st"/></g><g><use xlink:href="#gc8su"/></g><g><use xlink:href="#gc8sv"/></g><g><use xlink:href="#gc8sw"/></g><g><use xlink:href="#gc8sx"/></g></g></g></g></svg>