<svg xmlns="http://www.w3.org/2000/svg" xmlns:xlink="http://www.w3.org/1999/xlink" width="32" height="32" viewBox="0 0 32 32"><defs><path id="hgtea" d="M224.92 1330.1l3.07-.02V1327h-3.08zm-3.92 7.1a3.2 3.2 0 1 0 0-6.41 3.2 3.2 0 0 0 0 6.41zm5.58 4.13c.96 0 1.74-.78 1.74-1.75v-7.45h-2.71a4.98 4.98 0 1 1-9.22 0h-2.72v7.45c0 .97.78 1.75 1.75 1.75zm-11.16-16.43h11.16a3.52 3.52 0 0 1 3.52 3.52v11.16a3.52 3.52 0 0 1-3.52 3.52h-11.16a3.52 3.52 0 0 1-3.52-3.52v-11.16a3.52 3.52 0 0 1 3.52-3.52zM221 1350c8.82 0 16-7.18 16-16s-7.18-16-16-16-16 7.18-16 16 7.18 16 16 16z"/></defs><g><g transform="translate(-205 -1318)"><use xlink:href="#hgtea"/></g></g></svg>