<svg xmlns="http://www.w3.org/2000/svg" xmlns:xlink="http://www.w3.org/1999/xlink" width="19" height="24" viewBox="0 0 19 24"><defs><path id="ni0ka" d="M231.86 1273.52a6.01 6.01 0 0 1-1.08 1.81l-6.28 7.54-6.28-7.54c-.5-.58-.86-1.2-1.08-1.82-.9-2.44-.56-5.2.92-7.38a7.68 7.68 0 0 1 6.44-3.45 7.68 7.68 0 0 1 6.44 3.45 8.17 8.17 0 0 1 .92 7.39zm.44-8.35a9.3 9.3 0 0 0-7.8-4.17 9.3 9.3 0 0 0-7.8 4.17 9.87 9.87 0 0 0-1.1 8.93c.3.8.76 1.6 1.38 2.32l6.9 8.28a.81.81 0 0 0 1.25 0l6.9-8.27a7.67 7.67 0 0 0 1.37-2.32c1.1-2.96.68-6.3-1.1-8.94z"/><path id="ni0kb" d="M224.5 1273.7a3 3 0 0 1-2.96-3.02 3 3 0 0 1 2.96-3.02 3 3 0 0 1 2.96 3.02 3 3 0 0 1-2.96 3.02zm0-7.72c-2.54 0-4.6 2.1-4.6 4.7 0 2.59 2.06 4.7 4.6 4.7 2.54 0 4.6-2.11 4.6-4.7 0-2.6-2.06-4.7-4.6-4.7z"/></defs><g><g transform="translate(-215 -1261)"><g><g><g><use xlink:href="#ni0ka"/></g></g></g><g><g><g><use xlink:href="#ni0kb"/></g></g></g></g></g></svg>