<svg xmlns="http://www.w3.org/2000/svg" xmlns:xlink="http://www.w3.org/1999/xlink" width="36" height="32" viewBox="0 0 36 32"><defs><path id="niwna" d="M274.31 1201.07a3.39 3.39 0 0 1 4.83 0l.24.25a.9.9 0 0 0 1.28 0l.24-.24a3.37 3.37 0 0 1 4.82 0 3.41 3.41 0 0 1-.02 4.85l-5.7 5.73-5.69-5.74a3.41 3.41 0 0 1 0-4.85zm4.59 12.06c.3.3.68.46 1.1.46.41 0 .8-.17 1.1-.46l5.86-5.9a5.23 5.23 0 0 0 0-7.42 5.14 5.14 0 0 0-6.96-.37 5.16 5.16 0 0 0-6.98.36 5.23 5.23 0 0 0 0 7.42l5.88 5.91zm-7.75 3.75a.92.92 0 0 0-.91 0 8.56 8.56 0 0 1-4.85 1.18 8.08 8.08 0 0 0 2.15-3.26.92.92 0 0 0-.18-.94 12.95 12.95 0 0 1-3.56-8.86c0-7.82 7.27-14.18 16.2-14.18s16.2 6.36 16.2 14.18c0 7.82-7.26 14.18-16.2 14.18-3.15 0-6.21-.8-8.85-2.3zm-.44 1.83c2.8 1.5 6 2.3 9.28 2.3 9.94-.01 18.01-7.19 18.01-16.01s-8.08-16-18-16c-9.93 0-18 7.18-18 16 0 3.48 1.3 6.9 3.65 9.66a5.88 5.88 0 0 1-2.15 2.58c-.49.32-.72.9-.6 1.46.13.57.58.98 1.14 1.06.57.08 1.15.12 1.72.12 1.83 0 3.49-.4 4.95-1.17z"/></defs><g><g transform="translate(-262 -1189)"><use xlink:href="#niwna"/></g></g></svg>