<svg xmlns="http://www.w3.org/2000/svg" xmlns:xlink="http://www.w3.org/1999/xlink" width="48" height="48" viewBox="0 0 48 48"><defs><path id="m467a" d="M151.47 1581.77h-29.05a8.67 8.67 0 0 0-8.75 8.58v18.67a8.67 8.67 0 0 0 8.75 8.58h4.17c.2 0 .36.15.36.35v9.2c0 1.1 1.36 1.62 2.12.83l9.86-10.27a.36.36 0 0 1 .26-.11h12.28a8.67 8.67 0 0 0 8.75-8.58v-18.67a8.67 8.67 0 0 0-8.75-8.58z"/><path id="m467b" d="M146.78 1592.9a5.77 5.77 0 0 0-8.05 0l-1.25 1.23c-.3.3-.79.3-1.09 0l-1.23-1.2a5.77 5.77 0 0 0-8.05 0 5.5 5.5 0 0 0 0 7.88l9.28 9.1c.3.29.79.29 1.09 0l9.3-9.12a5.5 5.5 0 0 0 0-7.89z"/><path id="m467c" d="M151.53 1581h-29.06c-2.04 0-5.98 1.56-7.82 4.04-.04 0 .77-.5 1-.18.24.3-.13 1.2.2.98 1.62-2.07 4.89-3.43 6.62-3.43h29.06a7.96 7.96 0 0 1 8.03 7.87v18.67c0 4.34-3.6 7.87-8.03 7.87h-12.28c-.3 0-.59.12-.79.34l-9.86 10.27a.5.5 0 0 1-.56.12.48.48 0 0 1-.32-.46v-9.2c0-.6-.48-1.07-1.08-1.07h-4.17a7.96 7.96 0 0 1-8.03-7.87v-18.67c0-1.6.48-3.13 1.4-4.44.23-.32 0-.72-.18-.98-.19-.27-.78-.1-1 .18a9.1 9.1 0 0 0-1.66 5.24v18.67a9.39 9.39 0 0 0 9.47 9.28h3.81v8.86c0 .79.48 1.48 1.23 1.77a1.96 1.96 0 0 0 2.14-.47l9.75-10.16h12.13a9.39 9.39 0 0 0 9.47-9.28v-18.67a9.39 9.39 0 0 0-9.47-9.28z"/><path id="m467d" d="M142.12 1604.34c-.28.28.74-.28 1.02 0s-.28 1.27 0 1l4.2-4.12a6.2 6.2 0 0 0 0-8.88 6.51 6.51 0 0 0-9.06 0l-1.26 1.23-.03.01a.04.04 0 0 1-.03-.01l-1.24-1.21a6.51 6.51 0 0 0-9.07 0 6.2 6.2 0 0 0 0 8.88l9.29 9.1c.28.27.65.42 1.05.42s.77-.15 1.05-.42l5.1-5a.7.7 0 0 0 0-1 .73.73 0 0 0-1.02 0l-5.1 5-.03.01a.04.04 0 0 1-.03-.01l-9.29-9.1a4.8 4.8 0 0 1 0-6.88 5.05 5.05 0 0 1 7.03 0l1.24 1.2a1.5 1.5 0 0 0 2.1 0l1.26-1.22a5.05 5.05 0 0 1 7.03 0 4.8 4.8 0 0 1 0 6.88z"/></defs><g><g transform="translate(-113 -1581)"><g opacity=".4"><use fill="#3dad4b" xlink:href="#m467a"/></g><g><use fill="#ec5569" xlink:href="#m467b"/></g><g><use fill="#fff5f5" xlink:href="#m467b"/></g><g><use fill="#3dad4b" xlink:href="#m467c"/></g><g><use fill="#3dad4b" xlink:href="#m467d"/></g></g></g></svg>