<svg xmlns="http://www.w3.org/2000/svg" xmlns:xlink="http://www.w3.org/1999/xlink" width="28" height="27" viewBox="0 0 28 27"><defs><path id="yo2ya" d="M345.06 322.11h21.88v-2.26h-21.88z"/><path id="yo2yb" d="M356 326.63v-4.52h-10.94l-2.51 4.52z"/><path id="yo2yc" d="M356 322.11v4.52h13.45l-2.51-4.52z"/><path id="yo2yd" d="M369.45 326.63H356v2.26H369.45z"/><path id="yo2ye" d="M356 328.9v-2.27h-13.45v2.26H354.44z"/><path id="yo2yf" d="M349.2 338.76c.77-3 3.05-5.36 5.96-6.16l.42 1.63.78 3 .98 3.79-3.82-1.06-2.74-.76zm5.24-9.87H345.06v15.83h16.4V328.89h-7.02z"/><path id="yo2yg" d="M355.16 332.6a8.58 8.58 0 0 0-5.97 6.16l1.59.44a6.91 6.91 0 0 1 4.8-4.97z"/><path id="yo2yh" d="M355.58 334.23a6.91 6.91 0 0 0-4.8 4.97l2.74.76 3.82 1.06-.98-3.8z"/><path id="yo2yi" d="M361.47 333.42v-4.53h5.47v4.53z"/><path id="yo2yj" d="M366.94 333.42h-5.47v11.3h5.47z"/><path id="yo2yk" d="M368.9 328.33h-12.35v-1.13h12.36zm-2.5 4.52h-4.38v-3.4h4.37zm-4.38 11.3v-4.52h.54c.3 0 .55-.25.55-.56a.56.56 0 0 0-.55-.57h-.54v-4.52h4.37v10.17zm-15.16-14.7v.57c0 .32.24.57.55.57.3 0 .54-.25.54-.57v-.56h1.25v.56c0 .32.25.57.55.57.3 0 .55-.25.55-.57v-.56h1.25v.56c0 .32.24.57.54.57.3 0 .55-.25.55-.57v-.56h1.25v.56c0 .32.25.57.55.57.3 0 .54-.25.54-.57v-.56h1.25v.56c0 .32.25.57.55.57.3 0 .55-.25.55-.57v-.56h1.25v.56c0 .32.24.57.54.57.3 0 .55-.25.55-.57v-.56h1.25v14.7h-15.31v-14.7zm-3.77-2.25h12.36v1.13H343.1zm2.52-6.78h20.78v1.13h-20.78zm10.94 2.26h10.07l1.89 3.39h-11.96zm-11.17 0h10.07v3.39H343.5zm24.62 3.95v-.04-.02-.03l-.01-.03v-.02l-.02-.03v-.02l-.02-.03v-.02a.52.52 0 0 0-.02-.03l-2.45-4.4v-2.11a.56.56 0 0 0-.54-.56h-21.88c-.3 0-.54.25-.54.56v2.11l-2.45 4.4a.6.6 0 0 0-.02.03v.02l-.02.03v.02l-.01.03v.02l-.01.03v.06l-.01.03v2.26c0 .32.24.57.55.57h1.97v14.7h-1.67c-.3 0-.54.25-.54.56 0 .31.24.56.54.56h26.3c.3 0 .54-.25.54-.56a.56.56 0 0 0-.54-.57h-1.67v-14.7h1.97c.3 0 .55-.24.55-.56v-2.26z"/><path id="yo2yl" d="M354.77 333.3l.15.56a7.5 7.5 0 0 0-4.5 4.65l-.54-.14a8.05 8.05 0 0 1 4.9-5.06zm-.71 6.22l-.04-1.54a.55.55 0 0 0-.56-.55c-.3 0-.54.27-.54.58l.03 1.2-1.48-.4c.63-1.79 2-3.2 3.73-3.86l.54 2.09-.72.67a.58.58 0 0 0-.05.8.54.54 0 0 0 .77.04l.32-.3.5 1.97zm-5-.21l1.58.44 6.56 1.81c.04.02.1.02.14.02.3 0 .55-.25.55-.56a.58.58 0 0 0-.03-.19l-1.75-6.74-.43-1.64a.55.55 0 0 0-.67-.4 9.16 9.16 0 0 0-6.35 6.56c-.07.3.1.62.4.7z"/></defs><g><g transform="translate(-342 -319)"><g><g opacity=".4"><use xlink:href="#yo2ya"/></g><g opacity=".4"><g opacity=".4"><use xlink:href="#yo2yb"/></g><g opacity=".4"><use xlink:href="#yo2yc"/></g><g opacity=".4"><use xlink:href="#yo2yd"/></g><g opacity=".4"><use xlink:href="#yo2ye"/></g></g><g opacity=".2"><use xlink:href="#yo2yf"/></g><g opacity=".4"><use xlink:href="#yo2yg"/></g><g opacity=".4"><use xlink:href="#yo2yh"/></g><g opacity=".4"><g opacity=".4"><use xlink:href="#yo2yi"/></g><g opacity=".4"><use xlink:href="#yo2yj"/></g></g></g><g><g><use xlink:href="#yo2yk"/></g><g><use xlink:href="#yo2yl"/></g></g></g></g></svg>