<svg xmlns="http://www.w3.org/2000/svg" xmlns:xlink="http://www.w3.org/1999/xlink" width="36" height="36" viewBox="0 0 36 36"><defs><path id="5b4ca" d="M329.02 1729.92a3.08 3.08 0 0 0 3.08-3.11c0-1.72-1.38-3.1-3.1-3.1a3.1 3.1 0 0 0-3.1 3.14 3.09 3.09 0 0 0 3.12 3.07z"/><path id="5b4cb" d="M336.13 1735.65c-.78.8-1.71 1.37-2.75 1.77-.98.38-2.05.57-3.11.7l.33.36c1.44 1.45 2.9 2.89 4.33 4.34.5.5.6 1.11.32 1.69a1.7 1.7 0 0 1-1.6 1 1.56 1.56 0 0 1-1.01-.52c-1.1-1.1-2.2-2.17-3.27-3.29-.3-.32-.46-.26-.73.02-1.1 1.13-2.2 2.24-3.33 3.34-.5.5-1.1.59-1.68.3a1.7 1.7 0 0 1-.99-1.56c.03-.43.24-.76.53-1.06l4.28-4.28.32-.34a9.74 9.74 0 0 1-5.2-1.85l-.54-.45c-.66-.63-.73-1.36-.2-2.1.44-.64 1.18-.8 1.96-.44.15.07.3.16.43.25a8.51 8.51 0 0 0 9.44.09c.27-.21.57-.39.91-.48.67-.17 1.3.08 1.66.66.4.67.4 1.33-.1 1.85zm-7.1-15.18a6.34 6.34 0 1 1-.08 12.69 6.34 6.34 0 0 1 .08-12.69zM329 1715a18 18 0 1 0 0 36 18 18 0 0 0 0-36z"/></defs><g><g transform="translate(-311 -1715)"><g><g><use fill="#f70" xlink:href="#5b4ca"/></g><g><use fill="#f70" xlink:href="#5b4cb"/></g></g></g></g></svg>