<svg xmlns="http://www.w3.org/2000/svg" xmlns:xlink="http://www.w3.org/1999/xlink" width="80" height="39" viewBox="0 0 80 39"><defs><path id="k9swa" d="M295.8 1500.82v4.36h6.91V1498zm-18.74 5.79v11.36h-5.25l-12.47-12.2v11.48H244v-38.23h5.28l12.45 11.78v-10.97h15.33v1.52a12.27 12.27 0 0 1 7.62-2.38c3.06 0 5.95.81 8.22 2.92a9.6 9.6 0 0 1 3.01 4.94l16.94-7.53h4.63v25.88H324v12.07h-28.65v-10.64h-18.29z"/><path id="k9swb" d="M302.71 1498v7.18h-6.92v-4.36zm-7.36-2.13h-1.32c.52-.65.97-1.36 1.32-2.15zm-39 18.4H247V1482h1.1l16.43 15.56h.2v-14.75h9.36V1515h-1.05l-16.54-16.19h-.14v15.47zm34.55-30.17a6.81 6.81 0 0 1 2.34 5.35c0 4.39-3.4 7.44-8.56 7.44-5.35 0-8.64-3.05-8.64-7.44 0-2.15.8-3.96 2.38-5.35 1.58-1.43 3.68-2.15 6.26-2.15 2.63 0 4.69.72 6.22 2.15zm1.9 19.52h-16v-4.77h16zm5.54 10.65v-6.11h7.36v-14.6l-7.36 3v-7.54l15.15-6.73h1v25.87H321v6.1zm-16.1-24.92c0 1.77.92 2.87 2.44 2.87 1.58 0 2.59-1.2 2.59-2.87 0-1.52-1-2.62-2.59-2.62-1.48 0-2.43 1.14-2.43 2.62zm-5.18 17.26h18.3v10.64H324v-12.07h-6.52v-25.88h-4.63l-16.94 7.53a9.6 9.6 0 0 0-3-4.94c-2.28-2.1-5.17-2.92-8.23-2.92-2.78 0-5.42.7-7.62 2.38v-1.52h-15.33v10.97l-12.45-11.78H244v38.23h15.34v-11.48l12.47 12.2h5.25z"/></defs><g><g transform="translate(-244 -1479)"><g opacity=".4"><use fill="#3dad4b" xlink:href="#k9swa"/></g><g><use fill="#3dad4b" xlink:href="#k9swb"/></g></g></g></svg>