<svg xmlns="http://www.w3.org/2000/svg" xmlns:xlink="http://www.w3.org/1999/xlink" width="26" height="26" viewBox="0 0 26 26"><defs><path id="d0lwa" d="M126 1268.65a1.62 1.62 0 1 1 0 3.25 1.62 1.62 0 0 1 0-3.25zm-1.09 10.88a1.08 1.08 0 1 0 2.17 0v-5.63a3.8 3.8 0 0 0-1.08-7.42 3.8 3.8 0 0 0-1.09 7.43v5.62zm1.09-17.36a10.85 10.85 0 0 1 0 21.67 10.85 10.85 0 0 1 0-21.67zm0 23.83c7.17 0 13-5.83 13-13s-5.83-13-13-13-13 5.83-13 13 5.83 13 13 13z"/></defs><g><g transform="translate(-113 -1260)"><use xlink:href="#d0lwa"/></g></g></svg>