<svg xmlns="http://www.w3.org/2000/svg" xmlns:xlink="http://www.w3.org/1999/xlink" width="30" height="24" viewBox="0 0 30 24"><defs><path id="zdzva" d="M366.49 1594.67v1.65H347.5v-1.65c0-.34.28-.63.6-.63h17.77c.33 0 .6.29.6.63z"/><path id="zdzvb" d="M368.4 1605.49a4.54 4.54 0 0 1-.62 3.84 4.14 4.14 0 0 1-3.43 1.57h-14.7a4.14 4.14 0 0 1-3.42-1.57 4.54 4.54 0 0 1-.64-3.84l1.7-7.08h19.42z"/><path id="zdzvc" d="M344.01 1599.19c0-.43.34-.78.75-.78h.46l-.38 1.56c-.4 0-.83-.36-.83-.78zm12.99-8.1c.5 0 .93.37 1.05.85h-2.1a1.1 1.1 0 0 1 1.05-.84zm-9.49 5.23v-1.65c0-.34.28-.63.6-.63h17.77c.33 0 .6.29.6.63v1.65zm20.27 13.01a4.14 4.14 0 0 1-3.43 1.57h-14.7a4.14 4.14 0 0 1-3.42-1.57 4.54 4.54 0 0 1-.64-3.84l1.7-7.08h19.42l1.7 7.08a4.54 4.54 0 0 1-.63 3.84zm1.38-9.36l-.38-1.56h.46c.41 0 .75.35.75.78 0 .42-.42.78-.83.78zm2.84-.78a2.82 2.82 0 0 0-2.76-2.87h-.74v-1.65c0-1.5-1.17-2.73-2.62-2.73h-5.79A3.16 3.16 0 0 0 357 1589a3.16 3.16 0 0 0-3.1 2.94h-5.78a2.68 2.68 0 0 0-2.62 2.73v1.65h-.74a2.82 2.82 0 0 0-2.76 2.87 2.84 2.84 0 0 0 2.35 2.84l-.7 2.95a6.65 6.65 0 0 0 .99 5.64 6.08 6.08 0 0 0 5.01 2.38h14.7c2.08 0 3.86-.84 5.01-2.38a6.65 6.65 0 0 0 1-5.64l-.7-2.95a2.84 2.84 0 0 0 2.34-2.84z"/></defs><g><g transform="translate(-342 -1589)"><g><g opacity=".3"><use fill="#3dad4b" xlink:href="#zdzva"/></g><g opacity=".3"><use fill="#3dad4b" xlink:href="#zdzvb"/></g><g><use fill="#3dad4b" xlink:href="#zdzvc"/></g></g></g></g></svg>