<svg xmlns="http://www.w3.org/2000/svg" xmlns:xlink="http://www.w3.org/1999/xlink" width="52" height="52" viewBox="0 0 52 52"><defs><path id="18gca" d="M424.5 1482.22a36.95 36.95 0 0 0-51 0 1.62 1.62 0 0 0-.25 2.04l3.77 6a1.63 1.63 0 0 0 2.6.22 25.92 25.92 0 0 1 38.77 0c.3.35.75.55 1.21.55h.14c.5-.05.97-.33 1.24-.76l3.77-6.01c.41-.66.3-1.51-.26-2.04z"/><path id="18gcb" d="M420.82 1488.32a29.18 29.18 0 0 0-43.64 0 1.62 1.62 0 0 0-.16 1.95l20.6 32.97a1.63 1.63 0 0 0 2.76 0l20.6-32.97c.39-.62.32-1.41-.16-1.95z"/><path id="18gcc" d="M390.88 1491.5a4.87 4.87 0 1 1 9.74 0 4.87 4.87 0 0 1-9.74 0z"/><path id="18gcd" d="M390.88 1502.87a4.86 4.86 0 0 0-4.32 2.65l4.43 7.1a4.87 4.87 0 1 0-.11-9.75z"/><path id="18gce" d="M410.37 1496.38a4.87 4.87 0 1 0 .09 9.74l4.32-6.91a4.87 4.87 0 0 0-4.4-2.83z"/><path id="18gcf" d="M399 1523.99c-.56 0-1.08-.3-1.38-.77l-24.37-38.98a1.62 1.62 0 1 1 2.75-1.72l23 36.78 23-36.78a1.63 1.63 0 0 1 2.75 1.72l-24.37 38.98c-.3.48-.82.77-1.38.77z"/><path id="18gcg" d="M423.37 1485c-.41 0-.82-.15-1.12-.44a33.7 33.7 0 0 0-46.5 0 1.63 1.63 0 0 1-2.24-2.35 36.94 36.94 0 0 1 50.98 0 1.62 1.62 0 0 1-1.12 2.8z"/><path id="18gch" d="M419.6 1491.02c-.46 0-.9-.2-1.21-.55a25.93 25.93 0 0 0-38.78 0 1.63 1.63 0 1 1-2.43-2.15 29.18 29.18 0 0 1 43.64 0 1.62 1.62 0 0 1-1.22 2.7z"/><path id="18gci" d="M395.75 1488.25a3.25 3.25 0 1 0 0 6.5 3.25 3.25 0 0 0 0-6.5zm0 9.75a6.5 6.5 0 1 1 0-13 6.5 6.5 0 0 1 0 13z"/><path id="18gcj" d="M392.7 1513.88a1.62 1.62 0 0 1-.6-3.13 3.25 3.25 0 0 0-1.22-6.25c-.8 0-1.57.3-2.15.83a1.63 1.63 0 0 1-2.2-2.38 6.4 6.4 0 0 1 4.35-1.7 6.5 6.5 0 0 1 2.42 12.52c-.2.08-.4.12-.6.11z"/><path id="18gck" d="M408.42 1508.95c-.22 0-.44-.05-.65-.14a6.5 6.5 0 0 1 2.6-12.43 6.24 6.24 0 0 1 4.2 1.57 1.62 1.62 0 0 1-2.15 2.43 3 3 0 0 0-2.05-.76 3.25 3.25 0 0 0-1.3 6.21 1.62 1.62 0 0 1-.65 3.12z"/></defs><g><g transform="translate(-373 -1472)"><g opacity=".4"><use fill="#3dad4b" xlink:href="#18gca"/></g><g opacity=".2"><use fill="#3dad4b" xlink:href="#18gcb"/></g><g opacity=".4"><use fill="#3dad4b" xlink:href="#18gcc"/></g><g><use fill="#4caf50" xlink:href="#18gcd"/></g><g opacity=".4"><use fill="#3dad4b" xlink:href="#18gce"/></g><g><use fill="#3dad4b" xlink:href="#18gcf"/></g><g><use fill="#3dad4b" xlink:href="#18gcg"/></g><g><use fill="#3dad4b" xlink:href="#18gch"/></g><g><use fill="#3dad4b" xlink:href="#18gci"/></g><g><use fill="#3dad4b" xlink:href="#18gcj"/></g><g><use fill="#3dad4b" xlink:href="#18gck"/></g></g></g></svg>