<svg xmlns="http://www.w3.org/2000/svg" xmlns:xlink="http://www.w3.org/1999/xlink" width="56" height="56" viewBox="0 0 56 56"><defs><path id="t1pqa" d="M137.3 1213.3v-16.6l12.13 8.3zm14.92-9.28l-15.44-10.56c-.48-.36-1.76-.36-1.86.98v21.12a1.18 1.18 0 0 0 1.86.98l15.44-10.56c.4-.24.95-1.22 0-1.96z"/><path id="t1pqb" d="M141 1230.61a25.64 25.64 0 0 1-25.61-25.61 25.64 25.64 0 0 1 25.61-25.61 25.64 25.64 0 0 1 25.61 25.61 25.64 25.64 0 0 1-25.61 25.61zm0-53.61c-15.44 0-28 12.56-28 28s12.56 28 28 28 28-12.56 28-28-12.56-28-28-28z"/></defs><g><g transform="translate(-113 -1177)"><g><g><use xlink:href="#t1pqa"/></g><g><use xlink:href="#t1pqb"/></g></g></g></g></svg>