<svg xmlns="http://www.w3.org/2000/svg" xmlns:xlink="http://www.w3.org/1999/xlink" width="28" height="30" viewBox="0 0 28 30"><defs><path id="lveya" d="M237.35 1594.02v3.3c0 1-.77 1.84-1.76 1.94h-8.87v-7.2h8.67c1.09 0 1.96.88 1.96 1.96z"/><path id="lveyb" d="M235.6 1599.27v12.45a2.6 2.6 0 0 1-2.62 2.6h-6.26v-15.05h8.87z"/><path id="lveyc" d="M221.28 1614.32v-15.05h5.45v15.05z"/><path id="lveyd" d="M226.72 1592.07v7.2h-5.44v-7.2h2.69z"/><path id="lveye" d="M221.28 1599.27v15.05h-6.26a2.6 2.6 0 0 1-2.61-2.6v-12.45h.2z"/><path id="lveyf" d="M221.28 1592.07v7.2h-8.87a1.96 1.96 0 0 1-1.76-1.95v-3.3c0-1.08.87-1.95 1.96-1.95h8.66z"/><path id="lveyg" d="M236.7 1597.32c0 .67-.51 1.23-1.17 1.3h-8.13v-5.92h7.99c.72 0 1.3.6 1.3 1.32zm-3.72 16.38h-5.58v-13.78h7.53v11.8c0 1.08-.87 1.98-1.95 1.98zm-19.9-1.98v-11.8h7.52v13.78h-5.58c-1.08 0-1.95-.9-1.95-1.98zm-1.77-14.4v-3.3c0-.71.58-1.31 1.3-1.31h7.99v5.91H212.48a1.3 1.3 0 0 1-1.17-1.3zm5.84-7.23a3.03 3.03 0 0 1 3-3.8c1.7 0 3 1.3 3.12 2.95l.02.38v1.78h-5.8zm8.94 9.83v13.78h-4.18v-13.78zm-4.18-1.3v-5.92h4.18v5.92zm5.88-12.32a3.06 3.06 0 0 1 3 3.8l-.33 1.3h-5.87v-1.77l.03-.41c.24-1.68 1.48-2.9 3.17-2.92zm4 5.1l.26-1a4.36 4.36 0 0 0-4.28-5.4c-1.6.01-3.01.86-3.8 2.15a4.5 4.5 0 0 0-6.34-1.38c-1.5 1-2.2 2.87-1.76 4.64l.26 1h-3.52a2.6 2.6 0 0 0-2.61 2.6v3.3c0 1.14.72 2.11 1.77 2.47v11.94c0 1.8 1.45 3.28 3.25 3.28h17.96c1.8 0 3.25-1.49 3.25-3.28v-11.94a2.58 2.58 0 0 0 1.77-2.46v-3.3a2.62 2.62 0 0 0-2.61-2.62z"/></defs><g><g transform="translate(-210 -1585)"><g opacity=".3"><g opacity=".3"><use fill="#3dad4b" xlink:href="#lveya"/></g><g opacity=".3"><use fill="#3dad4b" xlink:href="#lveyb"/></g></g><g opacity=".6"><g opacity=".6"><use fill="#3dad4b" xlink:href="#lveyc"/></g><g opacity=".6"><use fill="#3dad4b" xlink:href="#lveyd"/></g></g><g opacity=".3"><g opacity=".3"><use fill="#3dad4b" xlink:href="#lveye"/></g><g opacity=".3"><use fill="#3dad4b" xlink:href="#lveyf"/></g></g><g><use fill="#3dad4b" xlink:href="#lveyg"/></g></g></g></svg>