<svg xmlns="http://www.w3.org/2000/svg" xmlns:xlink="http://www.w3.org/1999/xlink" width="512" height="10120" viewBox="0 0 512 10120"><svg viewBox="0 0 129 129" width="129" height="129" id="arrow-down" y="0"><path d="M121.3 34.6c-1.6-1.6-4.2-1.6-5.8 0l-51 51.1-51.1-51.1c-1.6-1.6-4.2-1.6-5.8 0-1.6 1.6-1.6 4.2 0 5.8l53.9 53.9c.8.8 1.8 1.2 2.9 1.2 1 0 2.1-.4 2.9-1.2l53.9-53.9c1.7-1.6 1.7-4.2.1-5.8z"></path></svg><svg viewBox="0 0 477.175 477.175" width="477.175" height="477.175" id="arrow-left" y="129"><path d="M145.188 238.575l215.5-215.5c5.3-5.3 5.3-13.8 0-19.1s-13.8-5.3-19.1 0l-225.1 225.1c-5.3 5.3-5.3 13.8 0 19.1l225.1 225c2.6 2.6 6.1 4 9.5 4s6.9-1.3 9.5-4c5.3-5.3 5.3-13.8 0-19.1l-215.4-215.5z"></path></svg><svg viewBox="0 0 477.175 477.175" width="477.175" height="477.175" id="arrow-right" y="607"><path d="M360.731 229.075l-225.1-225.1c-5.3-5.3-13.8-5.3-19.1 0s-5.3 13.8 0 19.1l215.5 215.5-215.5 215.5c-5.3 5.3-5.3 13.8 0 19.1 2.6 2.6 6.1 4 9.5 4 3.4 0 6.9-1.3 9.5-4l225.1-225.1c5.3-5.2 5.3-13.8.1-19z"></path></svg><svg width="64" height="64" viewBox="0 0 64 64" id="arrow-up" y="1085"><path d="M3.352 48.296l28.56-28.328 28.58 28.347c.397.394.917.59 1.436.59.52 0 1.04-.196 1.436-.59a2.003 2.003 0 0 0 0-2.849l-29.98-29.735c-.2-.2-.494-.375-.757-.475a2.052 2.052 0 0 0-2.166.456L.479 45.447a2.003 2.003 0 0 0 0 2.849 2.045 2.045 0 0 0 2.873 0z"></path></svg><svg width="26" height="26" viewBox="0 0 26 26" id="basket" y="1149"><defs><path id="a" d="M181.51 1275.85a1.08 1.08 0 1 0 0-2.17h-9.03a1.08 1.08 0 1 0 0 2.17zm0 5.41a1.08 1.08 0 1 0 0-2.16h-9.03a1.08 1.08 0 1 0 0 2.16zm-4.51-19.1a6.9 6.9 0 0 1 6.88 6.78h-13.77a6.9 6.9 0 0 1 6.89-6.77zm-10.64 8.95h21.28l-2.16 12.72h-16.96zm20.03 14.89c.53 0 .98-.38 1.07-.9l2.53-14.9a1.1 1.1 0 0 0-1.07-1.25h-2.86a9.07 9.07 0 0 0-18.11 0h-2.87c-1.02.08-1.12.95-1.07 1.26l2.53 14.89c.09.52.54.9 1.07.9z"></path></defs><use xlink:href="#a" transform="translate(-164 -1260)"></use></svg><svg width="80" height="79" viewBox="0 0 80 79" id="basket--color" y="1175"><defs><path id="a" d="M115.4 1486l5.18 40.29c.23 1.86 1.64 3.02 3.52 3.02h57.8c1.88 0 3.29-1.4 3.52-3.02l5.17-40.28a3.56 3.56 0 0 0-3.52-3.96h-68.14a3.56 3.56 0 0 0-3.52 3.96z"></path><path id="b" d="M190.36 1484.38a47.36 47.36 0 0 0-14.34-2.1h11.05c1.4-.23 2.58.7 3.29 2.1z"></path><path id="c" d="M118.93 1484.38c-.47 0-.7.23-.94.46-.23.23-.47.47-.23.93l5.17 40.28c0 .7.7 1.17 1.17 1.17h57.8c.7 0 1.17-.47 1.17-1.17l5.17-40.28c0-.46-.23-.93-.23-.93-.24-.23-.47-.46-.94-.46h-68.14zm62.97 47.5h-57.8c-3.05 0-5.64-2.33-5.87-5.13l-5.17-40.28a5.83 5.83 0 0 1 1.4-4.66 5.8 5.8 0 0 1 4.47-2.1h68.14c1.64 0 3.29.7 4.46 2.1a5.83 5.83 0 0 1 1.41 4.66l-5.17 40.05c-.47 3.03-2.82 5.35-5.87 5.35z"></path><path id="d" d="M134.67 1516.04a4.44 4.44 0 0 1-4.46-4.42v-13.5a4.44 4.44 0 0 1 4.46-4.43 4.6 4.6 0 0 1 4.47 4.42v13.5c.23 2.34-1.88 4.43-4.47 4.43z"></path><path id="e" d="M153 1516.04a4.44 4.44 0 0 1-4.46-4.42v-13.5a4.44 4.44 0 0 1 4.46-4.43c2.58 0 4.46 2.1 4.46 4.42v13.5a4.44 4.44 0 0 1-4.46 4.43z"></path><path id="f" d="M171.33 1516.04a4.44 4.44 0 0 1-4.47-4.42v-13.5a4.44 4.44 0 0 1 4.47-4.43c2.58 0 4.46 2.1 4.46 4.42v13.5a4.44 4.44 0 0 1-4.46 4.43z"></path><path id="g" d="M128.8 1479.72h48.16l-2.11-16.53c0-.24-.24-.24-.47-.24h-43c-.23 0-.23.24-.23.24zm53.57 4.66h-58.74l2.82-21.66a4.86 4.86 0 0 1 4.93-4.42h43.24c2.58 0 4.7 1.86 4.93 4.42z"></path><path id="h" d="M161.93 1465.05h-17.86a4.44 4.44 0 0 1-4.46-4.42 4.6 4.6 0 0 1 4.46-4.43h17.86c2.58 0 4.46 2.1 4.46 4.43a4.44 4.44 0 0 1-4.46 4.42z"></path><path id="i" d="M144.07 1458.3a2.1 2.1 0 1 0 0 4.19h17.86a2.1 2.1 0 1 0 0-4.2zm17.86 9.08h-17.86a6.79 6.79 0 0 1-6.81-6.75 6.79 6.79 0 0 1 6.81-6.76h17.86a6.79 6.79 0 0 1 6.81 6.76 6.79 6.79 0 0 1-6.81 6.75z"></path><path id="j" d="M134.67 1495.78a2.1 2.1 0 0 0-2.11 2.1v13.5c0 1.17.94 2.1 2.11 2.1a2.1 2.1 0 0 0 2.12-2.1v-13.5c.23-.93-.94-2.1-2.12-2.1zm0 22.59a6.79 6.79 0 0 1-6.81-6.75v-13.5a6.79 6.79 0 0 1 6.81-6.76 6.79 6.79 0 0 1 6.82 6.75v13.5c.23 3.73-3.06 6.76-6.82 6.76z"></path><path id="k" d="M153 1495.78a2.1 2.1 0 0 0-2.11 2.1v13.5c0 1.17.93 2.1 2.11 2.1a2.1 2.1 0 0 0 2.11-2.1v-13.5c0-.93-.94-2.1-2.11-2.1zm0 22.59a6.79 6.79 0 0 1-6.81-6.75v-13.5a6.79 6.79 0 0 1 6.81-6.76 6.79 6.79 0 0 1 6.81 6.75v13.5a6.79 6.79 0 0 1-6.81 6.76z"></path><path id="l" d="M171.33 1495.78a2.1 2.1 0 0 0-2.12 2.1v13.5c0 1.17.94 2.1 2.12 2.1a2.1 2.1 0 0 0 2.11-2.1v-13.5c0-.93-.94-2.1-2.11-2.1zm0 22.59a6.79 6.79 0 0 1-6.82-6.75v-13.5a6.79 6.79 0 0 1 6.82-6.76 6.79 6.79 0 0 1 6.8 6.75v13.5a6.79 6.79 0 0 1-6.8 6.76z"></path></defs><use fill="#3dad4b" xlink:href="#a" opacity=".4" transform="translate(-113 -1453)"></use><use fill="#030303" xlink:href="#b" opacity=".1" transform="translate(-113 -1453)"></use><use fill="#3dad4b" xlink:href="#c" transform="translate(-113 -1453)"></use><use fill="#fff" xlink:href="#d" transform="translate(-113 -1453)"></use><use fill="#fff" xlink:href="#e" transform="translate(-113 -1453)"></use><use fill="#fff" xlink:href="#f" transform="translate(-113 -1453)"></use><use fill="#3dad4b" xlink:href="#g" transform="translate(-113 -1453)"></use><use fill="#b0deb6" xlink:href="#h" transform="translate(-113 -1453)"></use><g fill="#3dad4b" transform="translate(-113 -1453)"><use xlink:href="#i"></use><use xlink:href="#j"></use><use xlink:href="#k"></use><use xlink:href="#l"></use></g></svg><svg viewBox="0 0 475.2 475.2" width="475.2" height="475.2" id="cancel" y="1254"><path d="M405.6 69.6C360.7 24.7 301.1 0 237.6 0s-123.1 24.7-168 69.6S0 174.1 0 237.6s24.7 123.1 69.6 168 104.5 69.6 168 69.6 123.1-24.7 168-69.6 69.6-104.5 69.6-168-24.7-123.1-69.6-168zm-19.1 316.9c-39.8 39.8-92.7 61.7-148.9 61.7s-109.1-21.9-148.9-61.7c-82.1-82.1-82.1-215.7 0-297.8C128.5 48.9 181.4 27 237.6 27s109.1 21.9 148.9 61.7c82.1 82.1 82.1 215.7 0 297.8z"></path><path d="M342.3 132.9c-5.3-5.3-13.8-5.3-19.1 0l-85.6 85.6-85.6-85.6c-5.3-5.3-13.8-5.3-19.1 0-5.3 5.3-5.3 13.8 0 19.1l85.6 85.6-85.6 85.6c-5.3 5.3-5.3 13.8 0 19.1 2.6 2.6 6.1 4 9.5 4s6.9-1.3 9.5-4l85.6-85.6 85.6 85.6c2.6 2.6 6.1 4 9.5 4 3.5 0 6.9-1.3 9.5-4 5.3-5.3 5.3-13.8 0-19.1l-85.4-85.6 85.6-85.6c5.3-5.3 5.3-13.8 0-19.1z"></path></svg><svg width="34" height="29" viewBox="0 0 34 29" id="car--color" y="1730"><defs><path id="a" d="M298.36 1599.92h-1.73c-.64 0-1.15.52-1.15 1.16v3.48c0 .64.51 1.16 1.15 1.16h3.46z"></path><path id="b" d="M301.24 1615a4.05 4.05 0 0 1-4.03-4.06c0-2.24 1.8-4.06 4.03-4.06a4.05 4.05 0 0 1 4.03 4.06c0 2.24-1.8 4.06-4.03 4.06z"></path><path id="c" d="M275.9 1610.94a3.47 3.47 0 0 1 3.45-3.48c1.91 0 3.46 1.56 3.46 3.48a3.47 3.47 0 0 1-3.46 3.48 3.47 3.47 0 0 1-3.45-3.48z"></path><path id="d" d="M279.35 1608.04a2.89 2.89 0 0 0-2.88 2.9c0 1.6 1.3 2.9 2.88 2.9 1.6 0 2.88-1.3 2.88-2.9a2.9 2.9 0 0 0-2.88-2.9zm0 6.96a4.05 4.05 0 0 1-4.03-4.06c0-2.24 1.8-4.06 4.03-4.06a4.05 4.05 0 0 1 4.03 4.06c0 2.24-1.8 4.06-4.03 4.06z"></path><path id="e" d="M298.36 1591.22h-1.15v-2.08l-1.4-1.4.82-.82 1.56 1.57c.1.1.17.26.17.41v2.32z"></path><path id="f" d="M295.48 1586h1.15v2.9h-1.15z"></path><path id="g" d="M297.2 1590.06h1.16v.58h-1.15z"></path><path id="h" d="M295.48 1587.74h1.15v1.16h-1.15z"></path><path id="i" d="M291.34 1593.09l4.01-.81.23 1.14-4.01.8z"></path><path id="j" d="M280.5 1599.34v-2.9c0-.32.26-.58.58-.58h8.64c.32 0 .57.26.57.58v1.74z"></path><path id="k" d="M279.35 1612.1c-.64 0-1.15-.52-1.15-1.16 0-.64.51-1.16 1.15-1.16.64 0 1.15.52 1.15 1.16 0 .64-.51 1.16-1.15 1.16z"></path><path id="l" d="M301.24 1612.1c-.64 0-1.15-.52-1.15-1.16 0-.64.51-1.16 1.15-1.16.63 0 1.15.52 1.15 1.16 0 .64-.52 1.16-1.15 1.16z"></path><path id="m" d="M279.35 1599.34h-3.45c-.64 0-1.16.52-1.16 1.16v3.48z"></path><path id="n" d="M273.6 1608.62h29.37v2.32h-29.38z"></path><path id="o" d="M290.3 1608.62v2.32h-16.7v-2.32a10.4 10.4 0 0 1 10.36-10.44h6.33l-1.16 2.63a6.42 6.42 0 0 0 0 5.18z"></path><path id="p" d="M301.81 1605.72l.15.46h-2.26l-.19-.46-3.46-11.6-.57-1.16h2.3l.58 1.16z"></path><path id="q" d="M296.63 1590.64h3.26v3.48h-3.26c-.95 0-1.73-.78-1.73-1.74s.78-1.74 1.73-1.74z"></path><path id="r" d="M306.42 1610.94a5.21 5.21 0 0 0-4.9-5.5 5.2 5.2 0 0 0-5.47 5.5z"></path><path id="s" d="M285.11 1610.94a5.64 5.64 0 0 0-5.76-5.51 5.64 5.64 0 0 0-5.76 5.51z"></path><path id="t" d="M298.93 1590.64h1.73c.32 0 .58.26.58.58v2.32c0 .32-.26.58-.58.58h-1.73v-3.48z"></path><path id="u" d="M279.35 1615a4.05 4.05 0 0 1-4.03-4.06.58.58 0 1 1 1.15 0c0 1.6 1.3 2.9 2.88 2.9a2.9 2.9 0 0 0 2.88-2.9.58.58 0 1 1 1.15 0c0 2.24-1.8 4.06-4.03 4.06z"></path><path id="v" d="M301.24 1615a4.05 4.05 0 0 1-4.03-4.06c0-.32.25-.58.57-.58.32 0 .58.26.58.58 0 1.6 1.29 2.9 2.88 2.9a2.9 2.9 0 0 0 2.88-2.9c0-.32.26-.58.57-.58.32 0 .58.26.58.58 0 2.24-1.81 4.06-4.03 4.06z"></path><path id="w" d="M279.93 1610.94a.58.58 0 0 1-1.15 0"></path><path id="x" d="M279.35 1612.1c-.63 0-1.15-.52-1.15-1.16v-.58h1.15v.58-.58h1.15v.58c0 .64-.51 1.16-1.15 1.16z"></path><path id="y" d="M301.81 1610.94c0 .32-.25.58-.57.58a.58.58 0 0 1-.58-.58"></path><path id="z" d="M301.24 1612.1c-.64 0-1.15-.52-1.15-1.16v-.58h1.15v.58-.58h1.15v.58c0 .64-.52 1.16-1.15 1.16z"></path><path id="A" d="M275.9 1599.92a.58.58 0 0 0-.58.58v1.5l2.06-2.08zm-1.73 4.88v-4.3c0-.96.77-1.74 1.73-1.74h4.27z"></path><path id="B" d="M273.02 1611.52v-3.48h1.15v3.48z"></path><path id="C" d="M284.54 1611.52v-1.16h12.1v1.16z"></path><path id="D" d="M284.54 1609.2v-1.16h12.1v1.16z"></path><path id="E" d="M290.3 1609.2h-5.38a.58.58 0 0 1-.58-.58c0-.32.26-.58.58-.58h4.49l-.8-1.81c-.8-1.8-.8-3.86 0-5.66l.8-1.81h-5.45c-5.4 0-9.8 4.42-9.8 9.86 0 .32-.25.58-.57.58a.58.58 0 0 1-.57-.58 11 11 0 0 1 10.94-11.02h6.33c.2 0 .38.1.49.26.1.17.12.38.04.56l-1.16 2.62a5.84 5.84 0 0 0 0 4.72l1.16 2.62a.58.58 0 0 1-.53.82z"></path><path id="F" d="M281.67 1597.6h8.05v-1.16h-8.03zm8.62 1.16h-9.21a.58.58 0 0 1-.58-.58v-1.74a1.2 1.2 0 0 1 1.21-1.16h7.97c.63-.01 1.17.5 1.19 1.14v1.76c0 .32-.26.58-.58.58z"></path><path id="G" d="M299.12 1606.44l-3.84-12.9h3.5l3.24 10.84-1.1.33-3-10.01h-1.1l3.4 11.4z"></path><path id="H" d="M302.36 1605.53l-1.1.33-.68-2.26 1.1-.33z"></path><path id="I" d="M296.63 1591.22c-.64 0-1.15.52-1.15 1.16 0 .64.51 1.16 1.15 1.16h1.73v-2.32zm2.88 3.48h-2.88a2.31 2.31 0 0 1-2.3-2.32 2.31 2.31 0 0 1 2.3-2.32h2.88z"></path><path id="J" d="M274.22 1610.36h10.26a5.05 5.05 0 0 0-5.12-4.35 5.08 5.08 0 0 0-5.14 4.35zm11.48 1.16H273l.02-.6a6.24 6.24 0 0 1 6.34-6.07 6.22 6.22 0 0 1 6.33 6.07z"></path><path id="K" d="M295.58 1593.42l-4 .8-.23-1.13 4-.81z"></path><path id="L" d="M299.51 1593.54h1.15v-2.32h-1.15zm1.15 1.16h-2.3v-4.64h2.3c.64 0 1.15.52 1.15 1.16v2.32c0 .64-.51 1.16-1.15 1.16z"></path><path id="M" d="M296.63 1600.5a.58.58 0 0 0-.58.58v3.48c0 .32.26.58.58.58h2.1l-1.38-4.64h-.72zm2.88 5.8h-2.88c-.95 0-1.73-.78-1.73-1.74v-3.48c0-.96.78-1.74 1.73-1.74h1.15c.26 0 .48.17.55.41l1.73 5.8a.6.6 0 0 1-.09.52.58.58 0 0 1-.46.23z"></path><path id="N" d="M298.36 1591.22h-1.15v-2.08l-1.4-1.4.82-.82 1.56 1.57c.1.1.17.26.17.41v2.32z"></path><path id="O" d="M295.48 1588.9v-2.9h1.15v2.9z"></path><path id="P" d="M279.35 1602.82v-1.74h1.15v1.74z"></path><path id="Q" d="M281.66 1602.82v-1.74h1.15v1.74z"></path><path id="R" d="M283.96 1602.82v-1.74h1.15v1.74z"></path><path id="S" d="M277.62 1608.62h3.46"></path><path id="T" d="M277.05 1609.2v-1.16h4.6v1.16z"></path><path id="U" d="M296.65 1610.36h9.18a4.78 4.78 0 0 0-4.6-4.35 4.78 4.78 0 0 0-4.58 4.35zm10.33 1.16H295.5l-.01-.56a5.94 5.94 0 0 1 5.74-6.11h.03a5.94 5.94 0 0 1 5.75 6.1z"></path></defs><use fill="#3dad4b" xlink:href="#a" opacity=".3" transform="translate(-273 -1586)"></use><use fill="#3dad4b" xlink:href="#b" opacity=".3" transform="translate(-273 -1586)"></use><use fill="#3dad4b" xlink:href="#c" opacity=".3" transform="translate(-273 -1586)"></use><use fill="#6c7175" xlink:href="#d" transform="translate(-273 -1586)"></use><use fill="#eaeae8" xlink:href="#e" transform="translate(-273 -1586)"></use><use fill="#dbdbdb" xlink:href="#f" transform="translate(-273 -1586)"></use><use fill="#b9b9b9" xlink:href="#g" transform="translate(-273 -1586)"></use><use fill="#b9b9b9" xlink:href="#h" transform="translate(-273 -1586)"></use><use fill="#b47923" xlink:href="#i" transform="translate(-273 -1586)"></use><use fill="#3dad4b" xlink:href="#j" opacity=".3" transform="translate(-273 -1586)"></use><use fill="#277baa" xlink:href="#k" transform="translate(-273 -1586)"></use><use fill="#277baa" xlink:href="#l" transform="translate(-273 -1586)"></use><use fill="#f0f0f0" xlink:href="#m" transform="translate(-273 -1586)"></use><g opacity=".3" fill="#3dad4b" transform="translate(-273 -1586)"><use xlink:href="#n" opacity=".3"></use><use xlink:href="#o" opacity=".3"></use><use xlink:href="#p" opacity=".3"></use></g><use fill="#3dad4b" xlink:href="#q" opacity=".3" transform="translate(-273 -1586)"></use><use fill="#3dad4b" xlink:href="#r" transform="translate(-273 -1586)"></use><use fill="#3dad4b" xlink:href="#s" transform="translate(-273 -1586)"></use><use fill="#3dad4b" xlink:href="#t" opacity=".3" transform="translate(-273 -1586)"></use><use fill="#3dad4b" xlink:href="#u" transform="translate(-273 -1586)"></use><use fill="#3dad4b" xlink:href="#v" transform="translate(-273 -1586)"></use><use fill="#fff" xlink:href="#w" transform="translate(-273 -1586)"></use><use fill="#3dad4b" xlink:href="#x" transform="translate(-273 -1586)"></use><use fill="#fff" xlink:href="#y" transform="translate(-273 -1586)"></use><use fill="#3dad4b" xlink:href="#z" transform="translate(-273 -1586)"></use><use fill="#3dad4b" xlink:href="#A" transform="translate(-273 -1586)"></use><use fill="#3dad4b" xlink:href="#B" transform="translate(-273 -1586)"></use><use fill="#3dad4b" xlink:href="#C" transform="translate(-273 -1586)"></use><use fill="#3dad4b" xlink:href="#D" transform="translate(-273 -1586)"></use><use fill="#3dad4b" xlink:href="#E" transform="translate(-273 -1586)"></use><use fill="#3dad4b" xlink:href="#F" transform="translate(-273 -1586)"></use><use fill="#3dad4b" xlink:href="#G" transform="translate(-273 -1586)"></use><use fill="#3dad4b" xlink:href="#H" transform="translate(-273 -1586)"></use><use fill="#3dad4b" xlink:href="#I" transform="translate(-273 -1586)"></use><use fill="#3dad4b" xlink:href="#J" transform="translate(-273 -1586)"></use><use fill="#3dad4b" xlink:href="#K" transform="translate(-273 -1586)"></use><use fill="#3dad4b" xlink:href="#L" transform="translate(-273 -1586)"></use><use fill="#3dad4b" xlink:href="#M" transform="translate(-273 -1586)"></use><use fill="#3dad4b" xlink:href="#N" transform="translate(-273 -1586)"></use><use fill="#3dad4b" xlink:href="#O" transform="translate(-273 -1586)"></use><use fill="#3dad4b" xlink:href="#P" transform="translate(-273 -1586)"></use><use fill="#3dad4b" xlink:href="#Q" transform="translate(-273 -1586)"></use><use fill="#3dad4b" xlink:href="#R" transform="translate(-273 -1586)"></use><use fill="#fff" xlink:href="#S" transform="translate(-273 -1586)"></use><use fill="#3dad4b" xlink:href="#T" transform="translate(-273 -1586)"></use><use fill="#3dad4b" xlink:href="#U" transform="translate(-273 -1586)"></use></svg><svg width="28" height="19" viewBox="0 0 28 19" id="card" y="1759"><defs><path id="a" d="M351.22 6584.38c.18 0 .33-.15.33-.33v-1.02a.33.33 0 0 0-.33-.33h-5.07a.33.33 0 0 0-.33.33v1.02c0 .18.15.33.33.33zm12.61 0a2.33 2.33 0 0 0 2.31-2.35c0-1.3-1.03-2.34-2.31-2.34-.53 0-1.01.17-1.4.48a2.3 2.3 0 0 0-1.4-.48 2.33 2.33 0 0 0-2.32 2.34c0 1.3 1.04 2.35 2.32 2.35a2.3 2.3 0 0 0 1.4-.48c.39.3.87.48 1.4.48zm-18.48-13.5h21.3c.83 0 1.5.68 1.5 1.52v1.34h-24.3v-1.34c0-.84.67-1.52 1.5-1.52zm-1.5 5.54h24.3v8.18a1.5 1.5 0 0 1-1.5 1.52h-21.3a1.5 1.5 0 0 1-1.5-1.52zm22.8 11.58a3.38 3.38 0 0 0 3.35-3.4v-12.2c0-1.88-1.5-3.4-3.35-3.4h-21.3a3.38 3.38 0 0 0-3.35 3.4v12.2c0 1.88 1.5 3.4 3.35 3.4z"></path></defs><use xlink:href="#a" transform="translate(-342 -6569)"></use></svg><svg width="15" height="12" viewBox="0 0 15 12" id="check" y="1778"><defs><path id="a" d="M310.7 1267l-7.5 7.45-2.9-2.9-2.3 2.28 5.2 5.17 9.8-9.72z"></path></defs><use xlink:href="#a" transform="translate(-298 -1267)"></use></svg><svg viewBox="0 0 26 26" width="26" height="26" id="checked" y="1790"><path d="M.3 14c-.2-.2-.3-.5-.3-.7s.1-.5.3-.7l1.4-1.4c.4-.4 1-.4 1.4 0l.1.1 5.5 5.9c.2.2.5.2.7 0L22.8 3.3h.1c.4-.4 1-.4 1.4 0l1.4 1.4c.4.4.4 1 0 1.4l-16 16.6c-.2.2-.4.3-.7.3-.3 0-.5-.1-.7-.3L.5 14.3.3 14z"></path></svg><svg width="54.422" height="54.422" viewBox="0 0 139 139" id="close" y="1816"><path class="fil0" d="M7 0l63 63 62-63 7 7-63 63 63 62-7 7-62-63-63 63-7-7 63-62L0 7z"></path></svg><svg width="16" height="20" viewBox="0 0 16 20" id="coins" y="1871"><defs><path id="a" d="M267 1281.18c-3.56 0-6.22-1.44-6.22-2.73v-.72c.24.17.5.33.8.47 1.46.75 3.39 1.16 5.42 1.16s3.96-.4 5.43-1.16c.28-.14.55-.3.8-.47v.72c0 1.3-2.67 2.73-6.23 2.73zm0-16.36c3.56 0 6.22 1.44 6.22 2.73 0 1.28-2.66 2.72-6.22 2.72-3.56 0-6.22-1.44-6.22-2.72 0-1.3 2.66-2.73 6.22-2.73zm6.22 6.36c0 1.29-2.66 2.73-6.22 2.73-3.56 0-6.22-1.44-6.22-2.73v-.72a7 7 0 0 0 .8.47c1.46.75 3.39 1.16 5.42 1.16s3.96-.41 5.43-1.16c.28-.15.55-.3.8-.47zm0 3.64c0 1.29-2.66 2.73-6.22 2.73-3.56 0-6.22-1.44-6.22-2.73v-.73c.24.17.5.33.8.48 1.46.75 3.39 1.16 5.42 1.16s3.96-.41 5.43-1.16c.28-.15.55-.3.8-.48zm-.8-10.66A12.18 12.18 0 0 0 267 1263c-2.03 0-3.96.41-5.43 1.16-1.66.85-2.57 2.05-2.57 3.39v10.9c0 1.34.91 2.54 2.57 3.39 1.47.75 3.4 1.16 5.43 1.16s3.96-.41 5.43-1.16c1.66-.85 2.57-2.05 2.57-3.39v-10.9c0-1.34-.91-2.54-2.57-3.39z"></path></defs><use xlink:href="#a" transform="translate(-259 -1263)"></use></svg><svg width="48" height="49" viewBox="0 0 48 49" id="compas" y="1891"><defs><path id="a" d="M212.54 1204.04l5.47-2.2-1.64 6.03-6.02 1.64zm-8.89 11.44l15.98-4.35 4.36-15.98-14.53 5.8z"></path><path id="b" d="M233.9 1207.5a20.04 20.04 0 0 1-17.9 17.9v-3.9h-4v3.9a20.03 20.03 0 0 1-17.9-17.9h3.9v-4h-3.9a20.03 20.03 0 0 1 17.9-17.9v4.9h4v-4.9a20.03 20.03 0 0 1 17.9 17.9H229v4zm4.01-4a24.03 24.03 0 0 0-21.91-21.91v-.1h-4v.1a24.03 24.03 0 0 0-21.91 21.9H190v4h.09a24.03 24.03 0 0 0 21.91 21.92v.09h4v-.1a24.03 24.03 0 0 0 21.91-21.9h.09v-4z"></path></defs><use xlink:href="#a" transform="translate(-190 -1181)"></use><use xlink:href="#b" transform="translate(-190 -1181)"></use></svg><svg width="32" height="32" viewBox="0 0 32 32" id="fb" y="1940"><defs><path id="a" d="M178.98 1334.56h-2.6v9.28h-3.86v-9.28h-1.83v-3.28h1.83v-2.12c0-1.52.72-3.89 3.9-3.89l2.85.01v3.18h-2.07c-.34 0-.82.17-.82.9v1.92h2.94zM175 1318c-8.82 0-16 7.18-16 16s7.18 16 16 16 16-7.18 16-16-7.18-16-16-16z"></path></defs><use xlink:href="#a" transform="translate(-159 -1318)"></use></svg><svg width="36" height="36" viewBox="0 0 36 36" id="fb--color" y="1972"><defs><path id="a" d="M367 1733a18 18 0 1 1 36 0 18 18 0 0 1-36 0z"></path><path id="b" d="M389.53 1733.7h-3.22v11.77h-4.86v-11.77h-2.32v-4.13h2.32v-2.68c0-1.91.9-4.9 4.9-4.9h3.61v4.02h-2.61c-.43 0-1.04.22-1.04 1.13v2.43h3.64z"></path></defs><use fill="#3b5998" xlink:href="#a" transform="translate(-367 -1715)"></use><use fill="#fff" xlink:href="#b" transform="translate(-367 -1715)"></use></svg><svg width="94" height="88" viewBox="0 0 94 88" id="fire--color" y="2008"><defs><path id="a" d="M190.34 1769.1v-8.66h12.27v8.65zm-72.95-8.66h12.27v8.65H117.4zm72.89-30.61c-.17-2.74-.7-5.4-1.54-7.9l11.35-4.72a42.73 42.73 0 0 1 2.48 12.62h-12.3zm.06 13.35v-9.44h12.27v9.44zm0 3.9h12.27v9.45h-12.27zm-11.64 19.73h7.75v2.28h-7.75zm-11.02 0h.64a1.95 1.95 0 1 0 0-3.9h-.64v-2.63h7.14v2.63h-.64a1.95 1.95 0 1 0 0 3.9h.64v2.28h-7.14zm-11.47 0h.63a1.95 1.95 0 1 0 0-3.9h-.63v-2.63h7.58v2.63h-.63a1.95 1.95 0 1 0 0 3.9h.63v2.28h-7.58zm-11.03 0h.64a1.95 1.95 0 1 0 0-3.9h-.64v-2.63h7.14v2.63h-.64a1.95 1.95 0 1 0 0 3.9h.64v2.28h-7.14zm-11.63 0h7.75v2.28h-7.75zm-3.89-19.72v9.44H117.4v-9.44zm0-13.35v9.44H117.4v-9.44zm1.6-11.8a30.42 30.42 0 0 0-1.54 7.89h-12.29c.2-4.41 1.05-8.65 2.48-12.62zm5.94-10.3a30.61 30.61 0 0 0-4.45 6.69l-11.35-4.73a42.99 42.99 0 0 1 7.11-10.7zm9.4-7.26a30.44 30.44 0 0 0-6.65 4.49l-8.7-8.73a42.75 42.75 0 0 1 10.65-7.17zm11.46-3.08c-2.74.18-5.38.72-7.87 1.58l-4.7-11.41a42.17 42.17 0 0 1 12.57-2.52zm11.75 1.58a30 30 0 0 0-7.87-1.58v-12.35c4.4.2 8.62 1.07 12.58 2.52zm10.24 6c-2-1.79-4.23-3.3-6.65-4.5l4.7-11.41a42.75 42.75 0 0 1 10.64 7.17zm2.75 2.76l8.69-8.73a42.99 42.99 0 0 1 7.11 10.7l-11.35 4.72a30.6 30.6 0 0 0-4.45-6.7zm-.43 39.63h-2.71a4.86 4.86 0 0 0-4.84 4.87v.24h-29.64v-.24a4.86 4.86 0 0 0-4.84-4.87h-2.71c-1.08 0-1.95.88-1.95 1.96s.87 1.95 1.95 1.95h2.71c.53 0 .96.43.96.96v6.77h-7.75v-31.18a26.55 26.55 0 0 1 26.45-26.58 26.55 26.55 0 0 1 26.45 26.58v31.18h-7.75v-6.77c0-.53.43-.96.96-.96h2.71a1.95 1.95 0 1 0 0-3.9zM160 1685c-25.64 0-46.5 20.96-46.5 46.73v39.32c0 1.08.87 1.95 1.94 1.95h89.12c1.07 0 1.94-.87 1.94-1.95v-39.32c0-25.77-20.86-46.73-46.5-46.73z"></path><path id="b" d="M160.22 1747.37c-2.53-2.14-.95-5.43-.76-5.78l.12-.28c1.77-5.16-1.5-11.27-5.3-14.76a1.94 1.94 0 0 0-2.24-.27 1.96 1.96 0 0 0-.98 2.05c.35 2.04-.7 3.14-3.4 5.34-2.1 1.71-4.7 3.84-5.78 7.35a9.92 9.92 0 0 0 .05 5.88 1.94 1.94 0 1 0 3.72-1.14 5.99 5.99 0 0 1-.06-3.58c.74-2.38 2.57-3.89 4.52-5.48 1.5-1.22 3.12-2.54 4.07-4.3 1.7 2.59 2.42 5.42 1.76 7.51-1.13 2.27-2.12 7.16 1.78 10.45a1.93 1.93 0 0 0 2.74-.24c.7-.82.58-2.05-.24-2.75z"></path><path id="c" d="M176.33 1726.96l.18-.32c.44-.77.3-1.74-.31-2.36a1.94 1.94 0 0 0-2.35-.3c-5.8 3.38-9.17 8.06-8.81 12.22a1.95 1.95 0 1 0 3.87-.34c-.14-1.6.91-3.56 2.8-5.42.22 2.08 1.1 4.87 3.05 9.05 1.57 3.4.8 6.8-2.3 10.1a1.96 1.96 0 0 0 1.42 3.3c.51 0 1.03-.2 1.41-.62 4.18-4.46 5.24-9.59 2.99-14.44-3.67-7.9-2.88-9.28-1.95-10.87z"></path><path id="d" d="M168.3 1726.47c0-3.27-2.7-7.27-5.38-9.78a1.94 1.94 0 0 0-3.26 1.62c.35 3.46-2.77 6.56-2.8 6.6-.78.74-.8 1.98-.06 2.75.74.78 1.97.8 2.75.06.13-.12 2.18-2.13 3.3-5.1.96 1.44 1.57 2.87 1.57 3.85a1.95 1.95 0 1 0 3.88 0z"></path></defs><use fill="#cbbaac" xlink:href="#a" transform="translate(-113 -1685)"></use><use fill="#cbbaac" xlink:href="#b" transform="translate(-113 -1685)"></use><use fill="#cbbaac" xlink:href="#c" transform="translate(-113 -1685)"></use><use fill="#cbbaac" xlink:href="#d" transform="translate(-113 -1685)"></use></svg><svg viewBox="0 0 59 59" width="59" height="59" id="garbage" y="2096"><path d="M29.5 51a1 1 0 0 0 1-1V17a1 1 0 1 0-2 0v33a1 1 0 0 0 1 1zm-10 0a1 1 0 0 0 1-1V17a1 1 0 1 0-2 0v33a1 1 0 0 0 1 1zm20 0a1 1 0 0 0 1-1V17a1 1 0 1 0-2 0v33a1 1 0 0 0 1 1z"></path><path d="M52.5 6H38.456c-.11-1.25-.495-3.358-1.813-4.711C35.809.434 34.751 0 33.499 0H23.5c-1.252 0-2.31.434-3.144 1.289C19.038 2.642 18.653 4.75 18.543 6H6.5a1 1 0 1 0 0 2h2.041l1.915 46.021C10.493 55.743 11.565 59 15.364 59h28.272c3.799 0 4.871-3.257 4.907-4.958L50.459 8H52.5a1 1 0 1 0 0-2zM21.792 2.681C22.24 2.223 22.799 2 23.5 2h9.999c.701 0 1.26.223 1.708.681.805.823 1.128 2.271 1.24 3.319H20.553c.112-1.048.435-2.496 1.239-3.319zm24.752 51.298C46.538 54.288 46.4 57 43.636 57H15.364c-2.734 0-2.898-2.717-2.909-3.042L10.542 8h37.915l-1.913 45.979z"></path></svg><svg width="20" height="18" viewBox="0 0 20 18" id="heart" y="2155"><defs><path id="a" d="M373.97 1330.37c-.3-3.11-2.57-5.37-5.42-5.37-1.9 0-3.63.99-4.6 2.57a5.22 5.22 0 0 0-4.5-2.57c-2.85 0-5.12 2.26-5.42 5.37-.02.13-.11.86.17 2.04a8.7 8.7 0 0 0 2.77 4.47l6.97 6.12 7.09-6.12a8.7 8.7 0 0 0 2.77-4.47c.28-1.18.19-1.9.17-2.04z"></path></defs><use xlink:href="#a" transform="translate(-354 -1325)"></use></svg><svg viewBox="0 0 486.196 486.196" width="486.196" height="486.196" id="house" y="2173"><path d="M481.708 220.456l-228.8-204.6c-.4-.4-.8-.7-1.3-1-5-4.8-13-5-18.3-.3l-228.8 204.6c-5.6 5-6 13.5-1.1 19.1 2.7 3 6.4 4.5 10.1 4.5 3.2 0 6.4-1.1 9-3.4l41.2-36.9v238.6c0 18.7 15.2 34 34 34h72.2c17.6 0 31.9-14.3 31.9-31.9v-121.3c0-2.7 2.2-4.9 4.9-4.9h72.9c2.7 0 4.9 2.2 4.9 4.9v121.3c0 17.6 14.3 31.9 31.9 31.9h72.2c19 0 34-18.7 34-42.6v-228.7l41.2 36.9c2.6 2.3 5.8 3.4 9 3.4 3.7 0 7.4-1.5 10.1-4.5 4.8-5.6 4.3-14.1-1.2-19.1zm-86.2 66.7v145.1c0 9.7-4.8 15.6-7 15.6h-72.2c-2.7 0-4.9-2.2-4.9-4.9v-121.1c0-17.6-14.3-31.9-31.9-31.9h-72.9c-17.6 0-31.9 14.3-31.9 31.9v121.3c0 2.7-2.2 4.9-4.9 4.9h-72.2c-3.8 0-7-3.1-7-7v-262.8l151.8-135.6 153.1 136.9v107.6z"></path></svg><svg width="32" height="32" viewBox="0 0 32 32" id="inst" y="2660"><defs><path id="a" d="M224.92 1330.1l3.07-.02V1327h-3.08zm-3.92 7.1a3.2 3.2 0 1 0 0-6.41 3.2 3.2 0 0 0 0 6.41zm5.58 4.13c.96 0 1.74-.78 1.74-1.75v-7.45h-2.71a4.98 4.98 0 1 1-9.22 0h-2.72v7.45c0 .97.78 1.75 1.75 1.75zm-11.16-16.43h11.16a3.52 3.52 0 0 1 3.52 3.52v11.16a3.52 3.52 0 0 1-3.52 3.52h-11.16a3.52 3.52 0 0 1-3.52-3.52v-11.16a3.52 3.52 0 0 1 3.52-3.52zM221 1350c8.82 0 16-7.18 16-16s-7.18-16-16-16-16 7.18-16 16 7.18 16 16 16z"></path></defs><use xlink:href="#a" transform="translate(-205 -1318)"></use></svg><svg viewBox="0 0 490.4 490.4" width="490.4" height="490.4" id="interface" y="2692"><path d="M245.2 490.4c135.2 0 245.2-110 245.2-245.2S380.4 0 245.2 0 0 110 0 245.2s110 245.2 245.2 245.2zm0-465.9c121.7 0 220.7 99 220.7 220.7s-99 220.7-220.7 220.7-220.7-99-220.7-220.7 99-220.7 220.7-220.7z"></path><path d="M206.5 349.6c2.3 2.3 5.4 3.6 8.7 3.6 3.2 0 6.3-1.3 8.6-3.6l147.5-146.7c2.3-2.3 3.6-5.4 3.6-8.7 0-3.2-1.3-6.4-3.6-8.7l-44.6-44.8c-4.8-4.8-12.5-4.8-17.3-.1l-94 93.5-34.2-34.4c-2.3-2.3-5.4-3.6-8.7-3.6-3.2 0-6.3 1.3-8.6 3.6l-44.8 44.6c-2.3 2.3-3.6 5.4-3.6 8.7 0 3.2 1.3 6.4 3.6 8.7l87.4 87.9zm-34-123.9l34.3 34.5c4.8 4.8 12.5 4.8 17.3.1l94-93.5 27.3 27.4-130.1 129.4-70.2-70.6 27.4-27.3z"></path></svg><svg viewBox="0 0 490.2 490.2" width="490.2" height="490.2" id="like" y="3183"><path d="M490.1 234.464c0-37.6-30.6-68.3-68.3-68.3H316.2v-76.1c0-32.2-9.4-55.4-28-69-29.4-21.6-69.8-9.3-71.5-8.7-5.1 1.6-8.6 6.3-8.6 11.7v85.5c0 67.3-78.1 90.2-81.4 91.2-1 .3-1.9.6-2.7 1.1-5.8-11.6-17.8-19.6-31.6-19.6H35.2c-19.4 0-35.2 15.8-35.2 35.2v207.9c0 19.4 15.8 35.2 35.2 35.2h33.1c6.8 0 12.3-5.5 12.3-12.3s-5.6-12.2-12.3-12.2H35.2c-5.9 0-10.7-4.8-10.7-10.7v-207.9c0-5.9 4.8-10.7 10.7-10.7h57.3c5.9 0 10.7 4.8 10.7 10.7v196.1c0 37.6 30.6 68.3 68.3 68.3h209.2c46.4 0 75.9-24.3 81.1-66.3l28.2-177c.1-.6.2-1.3.2-1.9v-2.2h-.1zm-24.5 1.1l-28.1 176.5c-3.7 30-22.8 45.3-56.8 45.3H171.5c-24.1 0-43.8-19.6-43.8-43.8v-189.1c1.8.4 3.7.3 5.6-.2 4.1-1.1 99.3-28.7 99.3-114.8v-75.6c10.4-1.6 28.2-2.5 41.1 6.9 11.9 8.8 18 25.3 18 49.3v88.4c0 6.8 5.5 12.3 12.3 12.3h117.9c24.1 0 43.8 19.6 43.8 43.8v1h-.1z"></path></svg><svg width="19" height="24" viewBox="0 0 19 24" id="location" y="3674"><defs><path id="a" d="M231.86 1273.52a6.01 6.01 0 0 1-1.08 1.81l-6.28 7.54-6.28-7.54c-.5-.58-.86-1.2-1.08-1.82-.9-2.44-.56-5.2.92-7.38a7.68 7.68 0 0 1 6.44-3.45 7.68 7.68 0 0 1 6.44 3.45 8.17 8.17 0 0 1 .92 7.39zm.44-8.35a9.3 9.3 0 0 0-7.8-4.17 9.3 9.3 0 0 0-7.8 4.17 9.87 9.87 0 0 0-1.1 8.93c.3.8.76 1.6 1.38 2.32l6.9 8.28a.81.81 0 0 0 1.25 0l6.9-8.27a7.67 7.67 0 0 0 1.37-2.32c1.1-2.96.68-6.3-1.1-8.94z"></path><path id="b" d="M224.5 1273.7a3 3 0 0 1-2.96-3.02 3 3 0 0 1 2.96-3.02 3 3 0 0 1 2.96 3.02 3 3 0 0 1-2.96 3.02zm0-7.72c-2.54 0-4.6 2.1-4.6 4.7 0 2.59 2.06 4.7 4.6 4.7 2.54 0 4.6-2.11 4.6-4.7 0-2.6-2.06-4.7-4.6-4.7z"></path></defs><use xlink:href="#a" transform="translate(-215 -1261)"></use><use xlink:href="#b" transform="translate(-215 -1261)"></use></svg><svg width="36" height="32" viewBox="0 0 36 32" id="love" y="3698"><defs><path id="a" d="M274.31 1201.07a3.39 3.39 0 0 1 4.83 0l.24.25a.9.9 0 0 0 1.28 0l.24-.24a3.37 3.37 0 0 1 4.82 0 3.41 3.41 0 0 1-.02 4.85l-5.7 5.73-5.69-5.74a3.41 3.41 0 0 1 0-4.85zm4.59 12.06c.3.3.68.46 1.1.46.41 0 .8-.17 1.1-.46l5.86-5.9a5.23 5.23 0 0 0 0-7.42 5.14 5.14 0 0 0-6.96-.37 5.16 5.16 0 0 0-6.98.36 5.23 5.23 0 0 0 0 7.42l5.88 5.91zm-7.75 3.75a.92.92 0 0 0-.91 0 8.56 8.56 0 0 1-4.85 1.18 8.08 8.08 0 0 0 2.15-3.26.92.92 0 0 0-.18-.94 12.95 12.95 0 0 1-3.56-8.86c0-7.82 7.27-14.18 16.2-14.18s16.2 6.36 16.2 14.18c0 7.82-7.26 14.18-16.2 14.18-3.15 0-6.21-.8-8.85-2.3zm-.44 1.83c2.8 1.5 6 2.3 9.28 2.3 9.94-.01 18.01-7.19 18.01-16.01s-8.08-16-18-16c-9.93 0-18 7.18-18 16 0 3.48 1.3 6.9 3.65 9.66a5.88 5.88 0 0 1-2.15 2.58c-.49.32-.72.9-.6 1.46.13.57.58.98 1.14 1.06.57.08 1.15.12 1.72.12 1.83 0 3.49-.4 4.95-1.17z"></path></defs><use xlink:href="#a" transform="translate(-262 -1189)"></use></svg><svg width="48" height="48" viewBox="0 0 48 48" id="love--color" y="3730"><defs><path id="a" d="M151.47 1581.77h-29.05a8.67 8.67 0 0 0-8.75 8.58v18.67a8.67 8.67 0 0 0 8.75 8.58h4.17c.2 0 .36.15.36.35v9.2c0 1.1 1.36 1.62 2.12.83l9.86-10.27a.36.36 0 0 1 .26-.11h12.28a8.67 8.67 0 0 0 8.75-8.58v-18.67a8.67 8.67 0 0 0-8.75-8.58z"></path><path id="b" d="M146.78 1592.9a5.77 5.77 0 0 0-8.05 0l-1.25 1.23c-.3.3-.79.3-1.09 0l-1.23-1.2a5.77 5.77 0 0 0-8.05 0 5.5 5.5 0 0 0 0 7.88l9.28 9.1c.3.29.79.29 1.09 0l9.3-9.12a5.5 5.5 0 0 0 0-7.89z"></path><path id="c" d="M151.53 1581h-29.06c-2.04 0-5.98 1.56-7.82 4.04-.04 0 .77-.5 1-.18.24.3-.13 1.2.2.98 1.62-2.07 4.89-3.43 6.62-3.43h29.06a7.96 7.96 0 0 1 8.03 7.87v18.67c0 4.34-3.6 7.87-8.03 7.87h-12.28c-.3 0-.59.12-.79.34l-9.86 10.27a.5.5 0 0 1-.56.12.48.48 0 0 1-.32-.46v-9.2c0-.6-.48-1.07-1.08-1.07h-4.17a7.96 7.96 0 0 1-8.03-7.87v-18.67c0-1.6.48-3.13 1.4-4.44.23-.32 0-.72-.18-.98-.19-.27-.78-.1-1 .18a9.1 9.1 0 0 0-1.66 5.24v18.67a9.39 9.39 0 0 0 9.47 9.28h3.81v8.86c0 .79.48 1.48 1.23 1.77a1.96 1.96 0 0 0 2.14-.47l9.75-10.16h12.13a9.39 9.39 0 0 0 9.47-9.28v-18.67a9.39 9.39 0 0 0-9.47-9.28z"></path><path id="d" d="M142.12 1604.34c-.28.28.74-.28 1.02 0s-.28 1.27 0 1l4.2-4.12a6.2 6.2 0 0 0 0-8.88 6.51 6.51 0 0 0-9.06 0l-1.26 1.23-.03.01a.04.04 0 0 1-.03-.01l-1.24-1.21a6.51 6.51 0 0 0-9.07 0 6.2 6.2 0 0 0 0 8.88l9.29 9.1c.28.27.65.42 1.05.42s.77-.15 1.05-.42l5.1-5a.7.7 0 0 0 0-1 .73.73 0 0 0-1.02 0l-5.1 5-.03.01a.04.04 0 0 1-.03-.01l-9.29-9.1a4.8 4.8 0 0 1 0-6.88 5.05 5.05 0 0 1 7.03 0l1.24 1.2a1.5 1.5 0 0 0 2.1 0l1.26-1.22a5.05 5.05 0 0 1 7.03 0 4.8 4.8 0 0 1 0 6.88z"></path></defs><use fill="#3dad4b" xlink:href="#a" opacity=".4" transform="translate(-113 -1581)"></use><use fill="#ec5569" xlink:href="#b" transform="translate(-113 -1581)"></use><use fill="#fff5f5" xlink:href="#b" transform="translate(-113 -1581)"></use><use fill="#3dad4b" xlink:href="#c" transform="translate(-113 -1581)"></use><use fill="#3dad4b" xlink:href="#d" transform="translate(-113 -1581)"></use></svg><svg viewBox="0 0 451 451" width="451" height="451" id="magnifying-glass" y="3778"><path d="M447.05 428l-109.6-109.6c29.4-33.8 47.2-77.9 47.2-126.1C384.65 86.2 298.35 0 192.35 0 86.25 0 .05 86.3.05 192.3s86.3 192.3 192.3 192.3c48.2 0 92.3-17.8 126.1-47.2L428.05 447c2.6 2.6 6.1 4 9.5 4s6.9-1.3 9.5-4c5.2-5.2 5.2-13.8 0-19zM26.95 192.3c0-91.2 74.2-165.3 165.3-165.3 91.2 0 165.3 74.2 165.3 165.3s-74.1 165.4-165.3 165.4c-91.1 0-165.3-74.2-165.3-165.4z"></path></svg><svg viewBox="0 0 483.3 483.3" width="483.3" height="483.3" id="mail" y="4229"><path d="M424.3 57.75H59.1c-32.6 0-59.1 26.5-59.1 59.1v249.6c0 32.6 26.5 59.1 59.1 59.1h365.1c32.6 0 59.1-26.5 59.1-59.1v-249.5c.1-32.6-26.4-59.2-59-59.2zm32.1 308.7c0 17.7-14.4 32.1-32.1 32.1H59.1c-17.7 0-32.1-14.4-32.1-32.1v-249.5c0-17.7 14.4-32.1 32.1-32.1h365.1c17.7 0 32.1 14.4 32.1 32.1v249.5h.1z"></path><path d="M304.8 238.55l118.2-106c5.5-5 6-13.5 1-19.1-5-5.5-13.5-6-19.1-1l-163 146.3-31.8-28.4c-.1-.1-.2-.2-.2-.3-.7-.7-1.4-1.3-2.2-1.9L78.3 112.35c-5.6-5-14.1-4.5-19.1 1.1-5 5.6-4.5 14.1 1.1 19.1l119.6 106.9-119.1 111.5c-5.4 5.1-5.7 13.6-.6 19.1 2.7 2.8 6.3 4.3 9.9 4.3 3.3 0 6.6-1.2 9.2-3.6l120.9-113.1 32.8 29.3c2.6 2.3 5.8 3.4 9 3.4s6.5-1.2 9-3.5l33.7-30.2 120.2 114.2c2.6 2.5 6 3.7 9.3 3.7 3.6 0 7.1-1.4 9.8-4.2 5.1-5.4 4.9-14-.5-19.1l-118.7-112.7z"></path></svg><svg width="459" height="459" viewBox="0 0 459 459" id="menu" y="4713"><path d="M0 382.5h459v-51H0v51zM0 255h459v-51H0v51zM0 76.5v51h459v-51H0z"></path></svg><svg width="36" height="36" viewBox="0 0 36 36" id="ok--color" y="5172"><defs><path id="a" d="M329.02 1729.92a3.08 3.08 0 0 0 3.08-3.11c0-1.72-1.38-3.1-3.1-3.1a3.1 3.1 0 0 0-3.1 3.14 3.09 3.09 0 0 0 3.12 3.07z"></path><path id="b" d="M336.13 1735.65c-.78.8-1.71 1.37-2.75 1.77-.98.38-2.05.57-3.11.7l.33.36c1.44 1.45 2.9 2.89 4.33 4.34.5.5.6 1.11.32 1.69a1.7 1.7 0 0 1-1.6 1 1.56 1.56 0 0 1-1.01-.52c-1.1-1.1-2.2-2.17-3.27-3.29-.3-.32-.46-.26-.73.02-1.1 1.13-2.2 2.24-3.33 3.34-.5.5-1.1.59-1.68.3a1.7 1.7 0 0 1-.99-1.56c.03-.43.24-.76.53-1.06l4.28-4.28.32-.34a9.74 9.74 0 0 1-5.2-1.85l-.54-.45c-.66-.63-.73-1.36-.2-2.1.44-.64 1.18-.8 1.96-.44.15.07.3.16.43.25a8.51 8.51 0 0 0 9.44.09c.27-.21.57-.39.91-.48.67-.17 1.3.08 1.66.66.4.67.4 1.33-.1 1.85zm-7.1-15.18a6.34 6.34 0 1 1-.08 12.69 6.34 6.34 0 0 1 .08-12.69zM329 1715a18 18 0 1 0 0 36 18 18 0 0 0 0-36z"></path></defs><use fill="#f70" xlink:href="#a" transform="translate(-311 -1715)"></use><use fill="#f70" xlink:href="#b" transform="translate(-311 -1715)"></use></svg><svg width="80" height="39" viewBox="0 0 80 39" id="one--color" y="5208"><defs><path id="a" d="M295.8 1500.82v4.36h6.91V1498zm-18.74 5.79v11.36h-5.25l-12.47-12.2v11.48H244v-38.23h5.28l12.45 11.78v-10.97h15.33v1.52a12.27 12.27 0 0 1 7.62-2.38c3.06 0 5.95.81 8.22 2.92a9.6 9.6 0 0 1 3.01 4.94l16.94-7.53h4.63v25.88H324v12.07h-28.65v-10.64h-18.29z"></path><path id="b" d="M302.71 1498v7.18h-6.92v-4.36zm-7.36-2.13h-1.32c.52-.65.97-1.36 1.32-2.15zm-39 18.4H247V1482h1.1l16.43 15.56h.2v-14.75h9.36V1515h-1.05l-16.54-16.19h-.14v15.47zm34.55-30.17a6.81 6.81 0 0 1 2.34 5.35c0 4.39-3.4 7.44-8.56 7.44-5.35 0-8.64-3.05-8.64-7.44 0-2.15.8-3.96 2.38-5.35 1.58-1.43 3.68-2.15 6.26-2.15 2.63 0 4.69.72 6.22 2.15zm1.9 19.52h-16v-4.77h16zm5.54 10.65v-6.11h7.36v-14.6l-7.36 3v-7.54l15.15-6.73h1v25.87H321v6.1zm-16.1-24.92c0 1.77.92 2.87 2.44 2.87 1.58 0 2.59-1.2 2.59-2.87 0-1.52-1-2.62-2.59-2.62-1.48 0-2.43 1.14-2.43 2.62zm-5.18 17.26h18.3v10.64H324v-12.07h-6.52v-25.88h-4.63l-16.94 7.53a9.6 9.6 0 0 0-3-4.94c-2.28-2.1-5.17-2.92-8.23-2.92-2.78 0-5.42.7-7.62 2.38v-1.52h-15.33v10.97l-12.45-11.78H244v38.23h15.34v-11.48l12.47 12.2h5.25z"></path></defs><use fill="#3dad4b" xlink:href="#a" opacity=".4" transform="translate(-244 -1479)"></use><use fill="#3dad4b" xlink:href="#b" transform="translate(-244 -1479)"></use></svg><svg viewBox="0 0 473.806 473.806" width="473.806" height="473.806" id="phone-call" y="5247"><path d="M374.456 293.506c-9.7-10.1-21.4-15.5-33.8-15.5-12.3 0-24.1 5.3-34.2 15.4l-31.6 31.5c-2.6-1.4-5.2-2.7-7.7-4-3.6-1.8-7-3.5-9.9-5.3-29.6-18.8-56.5-43.3-82.3-75-12.5-15.8-20.9-29.1-27-42.6 8.2-7.5 15.8-15.3 23.2-22.8 2.8-2.8 5.6-5.7 8.4-8.5 21-21 21-48.2 0-69.2l-27.3-27.3c-3.1-3.1-6.3-6.3-9.3-9.5-6-6.2-12.3-12.6-18.8-18.6-9.7-9.6-21.3-14.7-33.5-14.7s-24 5.1-34 14.7l-.2.2-34 34.3c-12.8 12.8-20.1 28.4-21.7 46.5-2.4 29.2 6.2 56.4 12.8 74.2 16.2 43.7 40.4 84.2 76.5 127.6 43.8 52.3 96.5 93.6 156.7 122.7 23 10.9 53.7 23.8 88 26 2.1.1 4.3.2 6.3.2 23.1 0 42.5-8.3 57.7-24.8.1-.2.3-.3.4-.5 5.2-6.3 11.2-12 17.5-18.1 4.3-4.1 8.7-8.4 13-12.9 9.9-10.3 15.1-22.3 15.1-34.6 0-12.4-5.3-24.3-15.4-34.3l-54.9-55.1zm35.8 105.3c-.1 0-.1.1 0 0-3.9 4.2-7.9 8-12.2 12.2-6.5 6.2-13.1 12.7-19.3 20-10.1 10.8-22 15.9-37.6 15.9-1.5 0-3.1 0-4.6-.1-29.7-1.9-57.3-13.5-78-23.4-56.6-27.4-106.3-66.3-147.6-115.6-34.1-41.1-56.9-79.1-72-119.9-9.3-24.9-12.7-44.3-11.2-62.6 1-11.7 5.5-21.4 13.8-29.7l34.1-34.1c4.9-4.6 10.1-7.1 15.2-7.1 6.3 0 11.4 3.8 14.6 7l.3.3c6.1 5.7 11.9 11.6 18 17.9 3.1 3.2 6.3 6.4 9.5 9.7l27.3 27.3c10.6 10.6 10.6 20.4 0 31-2.9 2.9-5.7 5.8-8.6 8.6-8.4 8.6-16.4 16.6-25.1 24.4-.2.2-.4.3-.5.5-8.6 8.6-7 17-5.2 22.7l.3.9c7.1 17.2 17.1 33.4 32.3 52.7l.1.1c27.6 34 56.7 60.5 88.8 80.8 4.1 2.6 8.3 4.7 12.3 6.7 3.6 1.8 7 3.5 9.9 5.3.4.2.8.5 1.2.7 3.4 1.7 6.6 2.5 9.9 2.5 8.3 0 13.5-5.2 15.2-6.9l34.2-34.2c3.4-3.4 8.8-7.5 15.1-7.5 6.2 0 11.3 3.9 14.4 7.3l.2.2 55.1 55.1c10.3 10.2 10.3 20.7.1 31.3zm-154.2-286.1c26.2 4.4 50 16.8 69 35.8s31.3 42.8 35.8 69c1.1 6.6 6.8 11.2 13.3 11.2.8 0 1.5-.1 2.3-.2 7.4-1.2 12.3-8.2 11.1-15.6-5.4-31.7-20.4-60.6-43.3-83.5s-51.8-37.9-83.5-43.3c-7.4-1.2-14.3 3.7-15.6 11s3.5 14.4 10.9 15.6zm217.2 96.3c-8.9-52.2-33.5-99.7-71.3-137.5s-85.3-62.4-137.5-71.3c-7.3-1.3-14.2 3.7-15.5 11-1.2 7.4 3.7 14.3 11.1 15.6 46.6 7.9 89.1 30 122.9 63.7 33.8 33.8 55.8 76.3 63.7 122.9 1.1 6.6 6.8 11.2 13.3 11.2.8 0 1.5-.1 2.3-.2 7.3-1.1 12.3-8.1 11-15.4z"></path></svg><svg width="26" height="26" viewBox="0 0 26 26" id="pick" y="5721"><defs><path id="a" d="M126 1268.65a1.62 1.62 0 1 1 0 3.25 1.62 1.62 0 0 1 0-3.25zm-1.09 10.88a1.08 1.08 0 1 0 2.17 0v-5.63a3.8 3.8 0 0 0-1.08-7.42 3.8 3.8 0 0 0-1.09 7.43v5.62zm1.09-17.36a10.85 10.85 0 0 1 0 21.67 10.85 10.85 0 0 1 0-21.67zm0 23.83c7.17 0 13-5.83 13-13s-5.83-13-13-13-13 5.83-13 13 5.83 13 13 13z"></path></defs><use xlink:href="#a" transform="translate(-113 -1260)"></use></svg><svg width="30" height="24" viewBox="0 0 30 24" id="pillow--color" y="5747"><defs><path id="a" d="M366.49 1594.67v1.65H347.5v-1.65c0-.34.28-.63.6-.63h17.77c.33 0 .6.29.6.63z"></path><path id="b" d="M368.4 1605.49a4.54 4.54 0 0 1-.62 3.84 4.14 4.14 0 0 1-3.43 1.57h-14.7a4.14 4.14 0 0 1-3.42-1.57 4.54 4.54 0 0 1-.64-3.84l1.7-7.08h19.42z"></path><path id="c" d="M344.01 1599.19c0-.43.34-.78.75-.78h.46l-.38 1.56c-.4 0-.83-.36-.83-.78zm12.99-8.1c.5 0 .93.37 1.05.85h-2.1a1.1 1.1 0 0 1 1.05-.84zm-9.49 5.23v-1.65c0-.34.28-.63.6-.63h17.77c.33 0 .6.29.6.63v1.65zm20.27 13.01a4.14 4.14 0 0 1-3.43 1.57h-14.7a4.14 4.14 0 0 1-3.42-1.57 4.54 4.54 0 0 1-.64-3.84l1.7-7.08h19.42l1.7 7.08a4.54 4.54 0 0 1-.63 3.84zm1.38-9.36l-.38-1.56h.46c.41 0 .75.35.75.78 0 .42-.42.78-.83.78zm2.84-.78a2.82 2.82 0 0 0-2.76-2.87h-.74v-1.65c0-1.5-1.17-2.73-2.62-2.73h-5.79A3.16 3.16 0 0 0 357 1589a3.16 3.16 0 0 0-3.1 2.94h-5.78a2.68 2.68 0 0 0-2.62 2.73v1.65h-.74a2.82 2.82 0 0 0-2.76 2.87 2.84 2.84 0 0 0 2.35 2.84l-.7 2.95a6.65 6.65 0 0 0 .99 5.64 6.08 6.08 0 0 0 5.01 2.38h14.7c2.08 0 3.86-.84 5.01-2.38a6.65 6.65 0 0 0 1-5.64l-.7-2.95a2.84 2.84 0 0 0 2.34-2.84z"></path></defs><use fill="#3dad4b" xlink:href="#a" opacity=".3" transform="translate(-342 -1589)"></use><use fill="#3dad4b" xlink:href="#b" opacity=".3" transform="translate(-342 -1589)"></use><use fill="#3dad4b" xlink:href="#c" transform="translate(-342 -1589)"></use></svg><svg width="52" height="52" viewBox="0 0 52 52" id="pizza--color" y="5771"><defs><path id="a" d="M424.5 1482.22a36.95 36.95 0 0 0-51 0 1.62 1.62 0 0 0-.25 2.04l3.77 6a1.63 1.63 0 0 0 2.6.22 25.92 25.92 0 0 1 38.77 0c.3.35.75.55 1.21.55h.14c.5-.05.97-.33 1.24-.76l3.77-6.01c.41-.66.3-1.51-.26-2.04z"></path><path id="b" d="M420.82 1488.32a29.18 29.18 0 0 0-43.64 0 1.62 1.62 0 0 0-.16 1.95l20.6 32.97a1.63 1.63 0 0 0 2.76 0l20.6-32.97c.39-.62.32-1.41-.16-1.95z"></path><path id="c" d="M390.88 1491.5a4.87 4.87 0 1 1 9.74 0 4.87 4.87 0 0 1-9.74 0z"></path><path id="d" d="M390.88 1502.87a4.86 4.86 0 0 0-4.32 2.65l4.43 7.1a4.87 4.87 0 1 0-.11-9.75z"></path><path id="e" d="M410.37 1496.38a4.87 4.87 0 1 0 .09 9.74l4.32-6.91a4.87 4.87 0 0 0-4.4-2.83z"></path><path id="f" d="M399 1523.99c-.56 0-1.08-.3-1.38-.77l-24.37-38.98a1.62 1.62 0 1 1 2.75-1.72l23 36.78 23-36.78a1.63 1.63 0 0 1 2.75 1.72l-24.37 38.98c-.3.48-.82.77-1.38.77z"></path><path id="g" d="M423.37 1485c-.41 0-.82-.15-1.12-.44a33.7 33.7 0 0 0-46.5 0 1.63 1.63 0 0 1-2.24-2.35 36.94 36.94 0 0 1 50.98 0 1.62 1.62 0 0 1-1.12 2.8z"></path><path id="h" d="M419.6 1491.02c-.46 0-.9-.2-1.21-.55a25.93 25.93 0 0 0-38.78 0 1.63 1.63 0 1 1-2.43-2.15 29.18 29.18 0 0 1 43.64 0 1.62 1.62 0 0 1-1.22 2.7z"></path><path id="i" d="M395.75 1488.25a3.25 3.25 0 1 0 0 6.5 3.25 3.25 0 0 0 0-6.5zm0 9.75a6.5 6.5 0 1 1 0-13 6.5 6.5 0 0 1 0 13z"></path><path id="j" d="M392.7 1513.88a1.62 1.62 0 0 1-.6-3.13 3.25 3.25 0 0 0-1.22-6.25c-.8 0-1.57.3-2.15.83a1.63 1.63 0 0 1-2.2-2.38 6.4 6.4 0 0 1 4.35-1.7 6.5 6.5 0 0 1 2.42 12.52c-.2.08-.4.12-.6.11z"></path><path id="k" d="M408.42 1508.95c-.22 0-.44-.05-.65-.14a6.5 6.5 0 0 1 2.6-12.43 6.24 6.24 0 0 1 4.2 1.57 1.62 1.62 0 0 1-2.15 2.43 3 3 0 0 0-2.05-.76 3.25 3.25 0 0 0-1.3 6.21 1.62 1.62 0 0 1-.65 3.12z"></path></defs><use fill="#3dad4b" xlink:href="#a" opacity=".4" transform="translate(-373 -1472)"></use><use fill="#3dad4b" xlink:href="#b" opacity=".2" transform="translate(-373 -1472)"></use><use fill="#3dad4b" xlink:href="#c" opacity=".4" transform="translate(-373 -1472)"></use><use fill="#4caf50" xlink:href="#d" transform="translate(-373 -1472)"></use><use fill="#3dad4b" xlink:href="#e" opacity=".4" transform="translate(-373 -1472)"></use><use fill="#3dad4b" xlink:href="#f" transform="translate(-373 -1472)"></use><use fill="#3dad4b" xlink:href="#g" transform="translate(-373 -1472)"></use><use fill="#3dad4b" xlink:href="#h" transform="translate(-373 -1472)"></use><use fill="#3dad4b" xlink:href="#i" transform="translate(-373 -1472)"></use><use fill="#3dad4b" xlink:href="#j" transform="translate(-373 -1472)"></use><use fill="#3dad4b" xlink:href="#k" transform="translate(-373 -1472)"></use></svg><svg viewBox="0 0 477 477" width="477" height="477" id="placeholder" y="5823"><path d="M238.4 0C133 0 47.2 85.8 47.2 191.2c0 12 1.1 24.1 3.4 35.9.1.7.5 2.8 1.3 6.4 2.9 12.9 7.2 25.6 12.8 37.7 20.6 48.5 65.9 123 165.3 202.8 2.5 2 5.5 3 8.5 3s6-1 8.5-3c99.3-79.8 144.7-154.3 165.3-202.8 5.6-12.1 9.9-24.7 12.8-37.7.8-3.6 1.2-5.7 1.3-6.4 2.2-11.8 3.4-23.9 3.4-35.9C429.6 85.8 343.8 0 238.4 0zm161.2 222.4c0 .2-.1.4-.1.6-.1.5-.4 2-.9 4.3v.2c-2.5 11.2-6.2 22.1-11.1 32.6-.1.1-.1.3-.2.4-18.7 44.3-59.7 111.9-148.9 185.6-89.2-73.7-130.2-141.3-148.9-185.6-.1-.1-.1-.3-.2-.4-4.8-10.4-8.5-21.4-11.1-32.6v-.2c-.6-2.3-.8-3.8-.9-4.3 0-.2-.1-.4-.1-.7-2-10.3-3-20.7-3-31.2 0-90.5 73.7-164.2 164.2-164.2s164.2 73.7 164.2 164.2c0 10.6-1 21.1-3 31.3z"></path><path d="M238.4 71.9c-66.9 0-121.4 54.5-121.4 121.4s54.5 121.4 121.4 121.4 121.4-54.5 121.4-121.4S305.3 71.9 238.4 71.9zm0 215.8c-52.1 0-94.4-42.4-94.4-94.4s42.4-94.4 94.4-94.4 94.4 42.4 94.4 94.4-42.3 94.4-94.4 94.4z"></path></svg><svg width="56" height="56" viewBox="0 0 56 56" id="play" y="6300"><defs><path id="a" d="M137.3 1213.3v-16.6l12.13 8.3zm14.92-9.28l-15.44-10.56c-.48-.36-1.76-.36-1.86.98v21.12a1.18 1.18 0 0 0 1.86.98l15.44-10.56c.4-.24.95-1.22 0-1.96z"></path><path id="b" d="M141 1230.61a25.64 25.64 0 0 1-25.61-25.61 25.64 25.64 0 0 1 25.61-25.61 25.64 25.64 0 0 1 25.61 25.61 25.64 25.64 0 0 1-25.61 25.61zm0-53.61c-15.44 0-28 12.56-28 28s12.56 28 28 28 28-12.56 28-28-12.56-28-28-28z"></path></defs><use xlink:href="#a" transform="translate(-113 -1177)"></use><use xlink:href="#b" transform="translate(-113 -1177)"></use></svg><svg width="28" height="30" viewBox="0 0 28 30" id="present--color" y="6356"><defs><path id="a" d="M237.35 1594.02v3.3c0 1-.77 1.84-1.76 1.94h-8.87v-7.2h8.67c1.09 0 1.96.88 1.96 1.96z"></path><path id="b" d="M235.6 1599.27v12.45a2.6 2.6 0 0 1-2.62 2.6h-6.26v-15.05h8.87z"></path><path id="c" d="M221.28 1614.32v-15.05h5.45v15.05z"></path><path id="d" d="M226.72 1592.07v7.2h-5.44v-7.2h2.69z"></path><path id="e" d="M221.28 1599.27v15.05h-6.26a2.6 2.6 0 0 1-2.61-2.6v-12.45h.2z"></path><path id="f" d="M221.28 1592.07v7.2h-8.87a1.96 1.96 0 0 1-1.76-1.95v-3.3c0-1.08.87-1.95 1.96-1.95h8.66z"></path><path id="g" d="M236.7 1597.32c0 .67-.51 1.23-1.17 1.3h-8.13v-5.92h7.99c.72 0 1.3.6 1.3 1.32zm-3.72 16.38h-5.58v-13.78h7.53v11.8c0 1.08-.87 1.98-1.95 1.98zm-19.9-1.98v-11.8h7.52v13.78h-5.58c-1.08 0-1.95-.9-1.95-1.98zm-1.77-14.4v-3.3c0-.71.58-1.31 1.3-1.31h7.99v5.91h-8.12a1.3 1.3 0 0 1-1.17-1.3zm5.84-7.23a3.03 3.03 0 0 1 3-3.8c1.7 0 3 1.3 3.12 2.95l.02.38v1.78h-5.8zm8.94 9.83v13.78h-4.18v-13.78zm-4.18-1.3v-5.92h4.18v5.92zm5.88-12.32a3.06 3.06 0 0 1 3 3.8l-.33 1.3h-5.87v-1.77l.03-.41c.24-1.68 1.48-2.9 3.17-2.92zm4 5.1l.26-1a4.36 4.36 0 0 0-4.28-5.4c-1.6.01-3.01.86-3.8 2.15a4.5 4.5 0 0 0-6.34-1.38c-1.5 1-2.2 2.87-1.76 4.64l.26 1h-3.52a2.6 2.6 0 0 0-2.61 2.6v3.3c0 1.14.72 2.11 1.77 2.47v11.94c0 1.8 1.45 3.28 3.25 3.28h17.96c1.8 0 3.25-1.49 3.25-3.28v-11.94a2.58 2.58 0 0 0 1.77-2.46v-3.3a2.62 2.62 0 0 0-2.61-2.62z"></path></defs><g opacity=".3" fill="#3dad4b" transform="translate(-210 -1585)"><use xlink:href="#a" opacity=".3"></use><use xlink:href="#b" opacity=".3"></use></g><g opacity=".6" fill="#3dad4b" transform="translate(-210 -1585)"><use xlink:href="#c" opacity=".6"></use><use xlink:href="#d" opacity=".6"></use></g><g opacity=".3" fill="#3dad4b" transform="translate(-210 -1585)"><use xlink:href="#e" opacity=".3"></use><use xlink:href="#f" opacity=".3"></use></g><use fill="#3dad4b" xlink:href="#g" transform="translate(-210 -1585)"></use></svg><svg viewBox="0 0 481.6 481.6" width="481.6" height="481.6" id="share" y="6386"><path d="M381.6 309.4c-27.7 0-52.4 13.2-68.2 33.6l-132.3-73.9c3.1-8.9 4.8-18.5 4.8-28.4 0-10-1.7-19.5-4.9-28.5l132.2-73.8c15.7 20.5 40.5 33.8 68.3 33.8 47.4 0 86.1-38.6 86.1-86.1S429 0 381.5 0s-86.1 38.6-86.1 86.1c0 10 1.7 19.6 4.9 28.5l-132.1 73.8c-15.7-20.6-40.5-33.8-68.3-33.8-47.4 0-86.1 38.6-86.1 86.1s38.7 86.1 86.2 86.1c27.8 0 52.6-13.3 68.4-33.9l132.2 73.9c-3.2 9-5 18.7-5 28.7 0 47.4 38.6 86.1 86.1 86.1s86.1-38.6 86.1-86.1-38.7-86.1-86.2-86.1zm0-282.3c32.6 0 59.1 26.5 59.1 59.1s-26.5 59.1-59.1 59.1-59.1-26.5-59.1-59.1 26.6-59.1 59.1-59.1zM100 299.8c-32.6 0-59.1-26.5-59.1-59.1s26.5-59.1 59.1-59.1 59.1 26.5 59.1 59.1-26.6 59.1-59.1 59.1zm281.6 154.7c-32.6 0-59.1-26.5-59.1-59.1s26.5-59.1 59.1-59.1 59.1 26.5 59.1 59.1-26.5 59.1-59.1 59.1z"></path></svg><svg viewBox="0 0 512 512" width="512" height="512" id="soc-facebook" y="6868"><path d="M134.941 272.691h56.123v231.051a8.256 8.256 0 0 0 8.258 8.258h95.159a8.256 8.256 0 0 0 8.258-8.258V273.78h64.519a8.26 8.26 0 0 0 8.204-7.315l9.799-85.061a8.259 8.259 0 0 0-8.202-9.203h-74.316V118.88c0-16.073 8.654-24.224 25.726-24.224h48.59a8.258 8.258 0 0 0 8.258-8.258V8.319a8.256 8.256 0 0 0-8.258-8.258h-66.965A65.863 65.863 0 0 0 307.027 0c-11.619 0-52.006 2.281-83.909 31.63-35.348 32.524-30.434 71.465-29.26 78.217v62.352H134.94a8.256 8.256 0 0 0-8.258 8.258v83.975a8.26 8.26 0 0 0 8.259 8.259z"></path></svg><svg width="96.669" height="96.669" viewBox="0 0 96.669 96.669" id="soc-google" y="7380"><path d="M50.91 55.189l-4.533-3.522c-1.38-1.144-3.27-2.656-3.27-5.422 0-2.778 1.889-4.544 3.527-6.18 5.279-4.157 10.557-8.581 10.557-17.903 0-9.586-6.031-14.629-8.923-17.022h7.795L64.244 0H39.459C32.658 0 22.856 1.608 15.68 7.533c-5.408 4.666-8.046 11.099-8.046 16.892 0 9.831 7.548 19.798 20.88 19.798 1.259 0 2.636-.124 4.022-.252-.623 1.515-1.252 2.777-1.252 4.917 0 3.905 2.006 6.299 3.774 8.567-5.663.39-16.237 1.018-24.033 5.809-7.424 4.415-9.684 10.84-9.684 15.377 0 9.334 8.8 18.028 27.045 18.028 21.636 0 33.089-11.971 33.089-23.823.002-8.707-5.028-12.992-10.565-17.657zM34.431 40.691c-10.824 0-15.727-13.992-15.727-22.434 0-3.288.623-6.682 2.763-9.333C23.486 6.4 27 4.762 30.281 4.762c10.434 0 15.846 14.118 15.846 23.197 0 2.271-.251 6.296-3.144 9.207-2.023 2.021-5.409 3.525-8.552 3.525zm.124 50.696c-13.46 0-22.139-6.438-22.139-15.392 0-8.949 8.048-11.978 10.816-12.979 5.281-1.777 12.076-2.024 13.21-2.024 1.258 0 1.887 0 2.889.126 9.568 6.81 13.721 10.203 13.721 16.65.001 7.805-6.417 13.619-18.497 13.619zm48.124-50.888V27.894h-6.224v12.605H63.869v6.294h12.586v12.684h6.224V46.793h12.649v-6.294z"></path></svg><svg width="430.117" height="430.117" viewBox="0 0 430.117 430.117" id="soc-in" y="7477"><path d="M430.117 261.543V420.56h-92.188V272.193c0-37.271-13.334-62.707-46.703-62.707-25.473 0-40.632 17.142-47.301 33.724-2.432 5.928-3.058 14.179-3.058 22.477V420.56h-92.219s1.242-251.285 0-277.32h92.21v39.309c-.187.294-.43.611-.606.896h.606v-.896c12.251-18.869 34.13-45.824 83.102-45.824 60.673-.001 106.157 39.636 106.157 124.818zM52.183 9.558C20.635 9.558 0 30.251 0 57.463c0 26.619 20.038 47.94 50.959 47.94h.616c32.159 0 52.159-21.317 52.159-47.94-.606-27.212-20-47.905-51.551-47.905zM5.477 420.56h92.184V143.24H5.477v277.32z"></path></svg><svg width="438.536" height="438.536" viewBox="0 0 438.536 438.536" id="soc-instagram" y="7908"><path d="M421.981 16.562C410.941 5.519 397.711 0 382.298 0H56.248C40.83 0 27.604 5.521 16.561 16.562 5.52 27.6.001 40.828.001 56.243V382.29c0 15.413 5.518 28.644 16.56 39.683 11.043 11.04 24.272 16.563 39.687 16.563h326.046c15.41 0 28.644-5.523 39.684-16.563 11.043-11.039 16.557-24.27 16.557-39.683V56.243c-.001-15.418-5.514-28.639-16.554-39.681zM157.462 158.025c17.224-16.652 37.924-24.982 62.097-24.982 24.36 0 45.153 8.33 62.381 24.982 17.228 16.655 25.837 36.785 25.837 60.386 0 23.598-8.609 43.729-25.837 60.379-17.228 16.659-38.014 24.988-62.381 24.988-24.172 0-44.87-8.336-62.097-24.988-17.228-16.652-25.841-36.781-25.841-60.379 0-23.601 8.613-43.73 25.841-60.386zm231.403 212.564c0 4.945-1.718 9.083-5.141 12.416-3.433 3.33-7.519 4.996-12.282 4.996h-305.2c-4.948 0-9.091-1.666-12.419-4.996-3.333-3.326-4.998-7.471-4.998-12.416V185.575H89.08c-3.805 11.993-5.708 24.462-5.708 37.402 0 36.553 13.322 67.715 39.969 93.511 26.65 25.786 58.721 38.685 96.217 38.685 24.744 0 47.583-5.903 68.527-17.703 20.937-11.807 37.486-27.839 49.676-48.112 12.183-20.272 18.274-42.4 18.274-66.38 0-12.94-1.91-25.406-5.715-37.402h38.547V370.59h-.002zm0-254.963c0 5.52-1.903 10.184-5.716 13.99-3.805 3.809-8.466 5.711-13.989 5.711h-49.676c-5.517 0-10.185-1.903-13.99-5.711-3.806-3.806-5.708-8.47-5.708-13.99V68.522c0-5.33 1.902-9.945 5.708-13.848 3.806-3.901 8.474-5.854 13.99-5.854h49.676c5.523 0 10.185 1.952 13.989 5.854 3.812 3.903 5.716 8.518 5.716 13.848v47.104z"></path></svg><svg width="95.481" height="95.481" viewBox="0 0 95.481 95.481" id="soc-ok" y="8347"><path d="M43.041 67.254c-7.402-.772-14.076-2.595-19.79-7.064-.709-.556-1.441-1.092-2.088-1.713-2.501-2.402-2.753-5.153-.774-7.988 1.693-2.426 4.535-3.075 7.489-1.682.572.27 1.117.607 1.639.969 10.649 7.317 25.278 7.519 35.967.329 1.059-.812 2.191-1.474 3.503-1.812 2.551-.655 4.93.282 6.299 2.514 1.564 2.549 1.544 5.037-.383 7.016-2.956 3.034-6.511 5.229-10.461 6.761-3.735 1.448-7.826 2.177-11.875 2.661.611.665.899.992 1.281 1.376 5.498 5.524 11.02 11.025 16.5 16.566 1.867 1.888 2.257 4.229 1.229 6.425-1.124 2.4-3.64 3.979-6.107 3.81-1.563-.108-2.782-.886-3.865-1.977-4.149-4.175-8.376-8.273-12.441-12.527-1.183-1.237-1.752-1.003-2.796.071-4.174 4.297-8.416 8.528-12.683 12.735-1.916 1.889-4.196 2.229-6.418 1.15-2.362-1.145-3.865-3.556-3.749-5.979.08-1.639.886-2.891 2.011-4.014 5.441-5.433 10.867-10.88 16.295-16.322.359-.362.694-.746 1.217-1.305z"></path><path d="M47.55 48.329c-13.205-.045-24.033-10.992-23.956-24.218C23.67 10.739 34.505-.037 47.84 0c13.362.036 24.087 10.967 24.02 24.478-.068 13.199-10.971 23.897-24.31 23.851zm12.001-24.186c-.023-6.567-5.253-11.795-11.807-11.801-6.609-.007-11.886 5.316-11.835 11.943.049 6.542 5.324 11.733 11.896 11.709 6.552-.023 11.768-5.285 11.746-11.851z"></path></svg><svg viewBox="0 0 410.155 410.155" width="410.155" height="410.155" id="soc-twitter" y="8443"><path d="M403.632 74.18a162.414 162.414 0 0 1-28.28 9.537 88.177 88.177 0 0 0 23.275-37.067c1.295-4.051-3.105-7.554-6.763-5.385a163.188 163.188 0 0 1-43.235 17.862 11.02 11.02 0 0 1-2.702.336c-2.766 0-5.455-1.027-7.57-2.891-16.156-14.239-36.935-22.081-58.508-22.081-9.335 0-18.76 1.455-28.014 4.325-28.672 8.893-50.795 32.544-57.736 61.724-2.604 10.945-3.309 21.9-2.097 32.56a3.166 3.166 0 0 1-.797 2.481 3.278 3.278 0 0 1-2.753 1.091c-62.762-5.831-119.358-36.068-159.363-85.14-2.04-2.503-5.952-2.196-7.578.593-7.834 13.44-11.974 28.812-11.974 44.454 0 23.972 9.631 46.563 26.36 63.032a79.24 79.24 0 0 1-20.169-7.808c-3.06-1.7-6.825.485-6.868 3.985-.438 35.612 20.412 67.3 51.646 81.569a79.567 79.567 0 0 1-16.786-1.399c-3.446-.658-6.341 2.611-5.271 5.952 10.138 31.651 37.39 54.981 70.002 60.278-27.066 18.169-58.585 27.753-91.39 27.753l-10.227-.006c-3.151 0-5.816 2.054-6.619 5.106-.791 3.006.666 6.177 3.353 7.74 36.966 21.513 79.131 32.883 121.955 32.883 37.485 0 72.549-7.439 104.219-22.109 29.033-13.449 54.689-32.674 76.255-57.141 20.09-22.792 35.8-49.103 46.692-78.201 10.383-27.737 15.871-57.333 15.871-85.589v-1.346c-.001-4.537 2.051-8.806 5.631-11.712a174.776 174.776 0 0 0 35.16-38.591c2.573-3.849-1.485-8.673-5.719-6.795z"></path></svg><svg viewBox="0 0 512 512" width="512" height="512" id="soc-vk" y="8854"><path d="M440.649 295.361c16.984 16.582 34.909 32.182 50.142 50.436 6.729 8.112 13.099 16.482 17.973 25.896 6.906 13.382.651 28.108-11.348 28.907l-74.59-.034c-19.238 1.596-34.585-6.148-47.489-19.302-10.327-10.519-19.891-21.714-29.821-32.588-4.071-4.444-8.332-8.626-13.422-11.932-10.182-6.609-19.021-4.586-24.84 6.034-5.926 10.802-7.271 22.762-7.853 34.8-.799 17.564-6.108 22.182-23.751 22.986-37.705 1.778-73.489-3.926-106.732-22.947-29.308-16.768-52.034-40.441-71.816-67.24-38.513-52.183-68.008-109.525-94.516-168.473-5.967-13.281-1.603-20.41 13.051-20.663 24.333-.473 48.663-.439 73.025-.034 9.89.145 16.437 5.817 20.256 15.16 13.165 32.371 29.274 63.169 49.494 91.716 5.385 7.6 10.876 15.201 18.694 20.55 8.65 5.923 15.236 3.96 19.305-5.676 2.582-6.11 3.713-12.691 4.295-19.234 1.928-22.513 2.182-44.988-1.199-67.422-2.076-14.001-9.962-23.065-23.933-25.714-7.129-1.351-6.068-4.004-2.616-8.073 5.995-7.018 11.634-11.387 22.875-11.387h84.298c13.271 2.619 16.218 8.581 18.035 21.934l.072 93.637c-.145 5.169 2.582 20.51 11.893 23.931 7.452 2.436 12.364-3.526 16.836-8.251 20.183-21.421 34.588-46.737 47.457-72.951 5.711-11.527 10.622-23.497 15.381-35.458 3.526-8.875 9.059-13.242 19.056-13.049l81.132.072c2.406 0 4.84.035 7.17.434 13.671 2.33 17.418 8.211 13.195 21.561-6.653 20.945-19.598 38.4-32.255 55.935-13.53 18.721-28.001 36.802-41.418 55.634-12.328 17.2-11.349 25.868 3.964 40.805z"></path></svg><svg width="64" height="64" viewBox="0 0 64 64" id="soc-youtube" y="9366"><path d="M37.635 41.44c-.542 0-1.088.257-1.635.79v10.999c.547.544 1.093.806 1.635.806.941 0 1.423-.806 1.423-2.434v-7.698c.001-1.632-.482-2.463-1.423-2.463zm11.966 0c-1.093 0-1.642.831-1.642 2.502v1.671h3.274v-1.671c.001-1.671-.546-2.502-1.632-2.502z"></path><path d="M56.396 29.049c-2.055-2.139-4.357-2.148-5.414-2.271-7.556-.54-18.889-.54-18.889-.54h-.025s-11.333 0-18.896.54c-1.054.123-3.352.133-5.409 2.271-1.618 1.632-2.147 5.327-2.147 5.327s-.536 4.343-.536 8.685v4.073c0 4.341.536 8.686.536 8.686s.529 3.695 2.147 5.321c2.057 2.139 4.753 2.072 5.952 2.295 4.324.413 18.365.538 18.365.538s11.347-.016 18.903-.562c1.057-.121 3.359-.133 5.414-2.271 1.619-1.626 2.147-5.321 2.147-5.321s.536-4.345.536-8.686v-4.073c0-4.342-.536-8.685-.536-8.685s-.529-3.695-2.148-5.327zM16.979 56.755h-3.642V35.953H9.486v-3.406H20.9v3.406h-3.92v20.802zm12.912 0h-3.278v-1.969c-1.299 1.489-2.54 2.221-3.742 2.221-1.054 0-1.781-.432-2.112-1.346-.178-.546-.286-1.409-.286-2.683V38.717h3.275v13.28c0 .765 0 1.164.024 1.27.083.507.336.769.771.769.658 0 1.341-.507 2.069-1.533V38.717h3.278v18.038zm12.44-5.409c0 1.663-.11 2.866-.331 3.631-.438 1.344-1.313 2.03-2.613 2.03-1.168 0-2.294-.647-3.387-1.999v1.747h-3.277V32.547H36v7.905c1.056-1.299 2.179-1.956 3.387-1.956 1.299 0 2.174.688 2.613 2.036.221.729.331 1.918.331 3.628v7.186zM54.51 48.33h-6.55v3.199c0 1.671.549 2.506 1.673 2.506.806 0 1.275-.44 1.463-1.311.029-.178.073-.908.073-2.219h3.341v.479c0 1.051-.043 1.776-.071 2.106a4.606 4.606 0 0 1-.766 1.955c-.906 1.312-2.25 1.96-3.963 1.96-1.711 0-3.014-.618-3.96-1.853-.696-.902-1.051-2.326-1.051-4.241v-6.319c0-1.927.318-3.333 1.012-4.249.946-1.234 2.249-1.849 3.922-1.849 1.643 0 2.947.614 3.863 1.849.685.916 1.015 2.322 1.015 4.249v3.738zM23.436 24.434v-9.908L27.848-.026h-3.71l-2.503 9.605L19.03-.026h-3.863c.777 2.268 1.581 4.544 2.356 6.816 1.174 3.411 1.91 5.982 2.244 7.735v9.908h3.669zm8.611.251c1.656 0 2.942-.624 3.858-1.864.692-.91 1.029-2.346 1.029-4.287v-6.387c0-1.945-.337-3.367-1.029-4.289-.917-1.25-2.202-1.87-3.858-1.87-1.654 0-2.943.62-3.854 1.87-.707.922-1.034 2.344-1.034 4.289v6.387c0 1.941.327 3.377 1.034 4.287.911 1.24 2.2 1.864 3.854 1.864zm-1.581-13.199c0-1.686.514-2.529 1.581-2.529 1.062 0 1.573.844 1.573 2.529v7.669c0 1.687-.511 2.53-1.573 2.53-1.067 0-1.581-.844-1.581-2.53v-7.669zm18.522 12.948V6.203H45.68v13.935c-.733 1.034-1.427 1.548-2.088 1.548-.445 0-.708-.265-.777-.773-.042-.109-.042-.51-.042-1.285V6.203h-3.299v14.418c0 1.289.108 2.161.293 2.711.332.92 1.068 1.353 2.133 1.353 1.204 0 2.46-.732 3.781-2.24v1.989h3.307z"></path></svg><svg viewBox="0 0 490.727 490.727" width="490.727" height="490.727" id="star" y="9430"><path d="M453.443 160.214l-119.7-8.6c-2.5-.2-4.7-1.7-5.6-4.1l-45.6-111c-6.3-15.3-20.5-24.8-37.1-24.8s-30.7 9.5-37.1 24.9l-45.7 111.1c-1 2.3-3.1 3.9-5.6 4.1l-119.5 8.6c-16.2.9-30 11.5-35.3 27.1-5.4 15.8-.9 32.4 11.9 43.3l92.5 76.4c1.9 1.6 2.8 4.2 2.2 6.6l-28.2 115.4c-3.3 12-1 24.4 6.3 34.1 7.5 9.8 19.2 15.7 31.5 15.7 7.6 0 15-2.3 21.1-6.4l101.1-62.9c2.1-1.3 4.8-1.3 6.9 0l102.1 62.7c6.4 4.3 13.8 6.6 21.3 6.6 11.5 0 22.9-5.5 30.3-14.8 7.7-9.6 10.5-22.1 7.7-34.6l-28.3-115.7c-.6-2.5.3-5.1 2.2-6.7l93.9-76.6c12.6-10.8 17.1-27.4 11.8-43.2-5.2-15.6-19.1-26.3-35.1-27.2zm7.7 51.5l-93.7 76.5c-9.2 7.5-13.4 19.9-10.5 31.5l28.3 115.5c1.5 6.8-1.2 11.5-3 13.7-2.8 3.5-7 5.7-11.2 5.7-2.6 0-5.2-.8-8-2.7l-102.5-63c-4.9-3-10.5-4.6-16.3-4.6s-11.5 1.6-16.4 4.7l-101.5 63.1c-6.5 4.3-15.2 2.4-19.8-3.6-1.9-2.5-3.9-6.8-2.1-13.1l28.3-115.8c2.8-11.5-1.3-23.8-10.4-31.3l-92.3-76.3c-7.3-6.3-5.3-14.4-4.5-16.7s4.1-10 13.7-10.5l119.7-8.6c11.8-.9 22-8.2 26.5-19.2l45.7-111.1c3.7-9 12-9.7 14.4-9.7 2.4 0 10.7.7 14.4 9.7l45.7 111.1c4.5 11 14.7 18.3 26.5 19.2l119.9 8.7c9.4.5 12.7 8.2 13.5 10.5.6 2.1 2.6 10.2-4.4 16.3z"></path></svg><svg width="52" height="52" viewBox="0 0 52 52" id="tomat--color" y="9921"><defs><path id="a" d="M508 1490.38c-1.05.38-2.37.74-3.93.94.26 1.5.21 3.8-1.67 5.98a1.3 1.3 0 0 1-1 .45c-.35 0-.69-.15-.93-.4-1.61-1.65-4.66-4.38-6.47-5.17-1.81.8-4.85 3.51-6.46 5.17a1.31 1.31 0 0 1-1.93-.06 7.05 7.05 0 0 1-1.68-5.98 18.8 18.8 0 0 1-2.77-.57c.12.03-1.6-.83-1.48-.8a16.12 16.12 0 0 0-9.26 14.81c.02 4.86 2.71 10 7.08 13.04 3.97 2.77 9.23 3.97 15.2 4.18-.43.02 5.58-.54 5.14-.54 6.5 0 8.6-1.62 12.86-4.6 4.38-3.04 6.7-7.22 6.71-12.08.03-9.74-6.24-13.23-9.4-14.37z"></path><path id="b" d="M502.34 1488.95c1.42-.07 5.9-.93 6.91-1.21-4.45-1.5-8.37-2.6-8.41-2.6-.36 0-.69-.13-.93-.37a1.24 1.24 0 0 1-.4-.9v-.4c-.25-.02-.4-.01-.4-.01-.35 0-3.4 1.63-3.65 1.4a1.24 1.24 0 0 1-.39-.9l-.02-4.19c-.01-1.07-.05-1.92.63-2.6.36-.37.83-.56 1.43-.67l-.24-.34-1.2-1.96c-2.62 0-2.91 1.9-2.92 1.96l-.35 8.61c0 .34-.54.13-.8.36-.24.24-2.07-.27-2.41-.27-.05 0-4.95 1.44-10 3.39.47.06 5.62 1 6.12 1.03.43.02 1.17-.1 1.4.27.22.36.24.8.06 1.18-.04.08-.83 1.83.05 3.75 1.64-1.57 4.64-4.2 6.8-4.85.26-.08.52-.07.76 0 2.17.65 5.16 3.29 6.81 4.85.89-1.95.06-3.72.04-3.74-.18-.38-.16-.82.07-1.18a1.3 1.3 0 0 1 1.04-.61z"></path><path id="c" d="M491.6 1485.22c.35 0 .69-.12.93-.36.25-.24.4-.56.4-.9l-.01-7.49c.01-.06-.04-1.98 1.86-1.98h.9l1.43 2.01c-.6.1-1.07.3-1.43.67-.68.68-.64 1.53-.63 2.6l.02 4.2c0 .33.14.65.4.89.24.23.57.36.92.36.05 0 5.09-.05 10.97 2.7-1.2.46-2.9.92-5.02 1.03a1.3 1.3 0 0 0-1.05.6c-.22.37-.24.81-.06 1.19.01.02.85 1.8-.04 3.74-1.65-1.56-4.64-4.2-6.8-4.85-.25-.07-.51-.08-.77 0-2.16.65-5.16 3.28-6.8 4.85a4.76 4.76 0 0 1-.05-3.75c.18-.38.16-.82-.06-1.18a1.3 1.3 0 0 0-1.05-.61c-2.1-.1-3.8-.57-5.01-1.03a27.78 27.78 0 0 1 10.95-2.7zm19.1 31.62c-4.27 2.97-10.2 4.61-16.7 4.61s-12.43-1.64-16.7-4.61c-4.38-3.05-6.7-7.23-6.71-12.09-.03-9.75 6.26-13.24 9.42-14.38 1.05.38 2.37.74 3.92.94-.26 1.5-.2 3.8 1.68 5.98a1.3 1.3 0 0 0 .99.45c.36 0 .7-.14.94-.4 1.6-1.65 4.65-4.37 6.46-5.16 1.81.8 4.86 3.52 6.47 5.17a1.31 1.31 0 0 0 1.93-.05 7.04 7.04 0 0 0 1.67-5.98c1.56-.2 2.88-.56 3.93-.94 3.17 1.14 9.44 4.63 9.41 14.37-.01 4.86-2.33 9.04-6.7 12.09zm.28-27.93a1.24 1.24 0 0 0-.17-2.05 31.64 31.64 0 0 0-13.15-4.11v-3.78c.47-.07 1.39-.07 1.83-.07.48 0 .93-.26 1.15-.67.22-.41.2-.92-.08-1.3l-3.14-4.42a1.3 1.3 0 0 0-1.06-.54h-1.58c-2.36 0-4.31 1.8-4.44 4.05v6.73a31.6 31.6 0 0 0-13.15 4.1c-.37.21-.61.6-.63 1.02-.02.4.16.79.47 1.04-3.87 1.97-9.06 6.38-9.03 15.85.02 5.62 2.78 10.64 7.79 14.12 4.7 3.28 11.17 5.09 18.21 5.09 7.04 0 13.5-1.8 18.21-5.09 5-3.48 7.77-8.5 7.79-14.12.03-9.46-5.15-13.87-9.03-15.85z"></path></defs><use fill="#3dad4b" xlink:href="#a" opacity=".2" transform="translate(-468 -1472)"></use><use fill="#3dad4b" xlink:href="#b" opacity=".4" transform="translate(-468 -1472)"></use><use fill="#3dad4b" xlink:href="#c" transform="translate(-468 -1472)"></use></svg><svg width="32" height="32" viewBox="0 0 32 32" id="twt" y="9973"><defs><path id="a" d="M274.14 1330.34v.48c0 4.86-3.7 10.47-10.47 10.47-2.08 0-4.02-.6-5.65-1.65a7.46 7.46 0 0 0 5.46-1.53 3.69 3.69 0 0 1-3.44-2.55 3.71 3.71 0 0 0 1.66-.07 3.68 3.68 0 0 1-2.95-3.6v-.05c.5.27 1.06.44 1.66.46a3.68 3.68 0 0 1-1.14-4.92 10.46 10.46 0 0 0 7.6 3.85 3.68 3.68 0 0 1 6.27-3.36 7.35 7.35 0 0 0 2.34-.9 3.7 3.7 0 0 1-1.62 2.04 7.32 7.32 0 0 0 2.11-.58 7.4 7.4 0 0 1-1.83 1.9zM267 1318c-8.82 0-16 7.18-16 16s7.18 16 16 16 16-7.18 16-16-7.18-16-16-16z"></path></defs><use xlink:href="#a" transform="translate(-251 -1318)"></use></svg><svg width="48" height="15" viewBox="0 0 48 15" id="visa" y="10005"><defs><path id="a" d="M418.22 1325.25l-2.44 14.53h3.9l2.44-14.53z"></path><path id="b" d="M412.5 1325.27l-3.81 9.9-.41-1.49c-.75-1.8-2.9-4.4-5.4-6.02l3.49 12.11h4.13l6.14-14.5z"></path><path id="c" d="M406.8 1326.3c-.23-.88-.89-1.14-1.7-1.17h-6.05l-.05.28c4.7 1.16 7.82 3.96 9.11 7.32z"></path><path id="d" d="M430.03 1328.04c1.28-.02 2.2.26 2.92.55l.35.17.53-3.15a9.94 9.94 0 0 0-3.5-.61c-3.85 0-6.57 1.97-6.59 4.8-.02 2.08 1.94 3.25 3.42 3.94 1.52.72 2.03 1.17 2.02 1.8-.01.98-1.21 1.43-2.33 1.43-1.56 0-2.4-.22-3.68-.76l-.5-.24-.55 3.26c.92.4 2.6.75 4.35.77 4.1 0 6.77-1.95 6.8-4.97.01-1.65-1.03-2.9-3.28-3.94-1.37-.68-2.2-1.12-2.2-1.8 0-.6.71-1.25 2.24-1.25z"></path><path id="e" d="M439.03 1334.63l1.56-4.06c-.03.04.31-.84.52-1.39l.26 1.26.9 4.2zm4.81-9.36h-3.01c-.94 0-1.63.25-2.05 1.2L433 1339.8h4.1l.82-2.18h5l.47 2.18H447z"></path></defs><use xlink:href="#a" transform="translate(-399 -1325)"></use><use xlink:href="#b" transform="translate(-399 -1325)"></use><use xlink:href="#c" transform="translate(-399 -1325)"></use><use xlink:href="#d" transform="translate(-399 -1325)"></use><use xlink:href="#e" transform="translate(-399 -1325)"></use></svg><svg width="32" height="32" viewBox="0 0 32 32" id="vk" y="10020"><defs><path id="a" d="M137.12 1335.73c.74.73 1.53 1.41 2.2 2.22.3.35.58.72.79 1.13.3.6.03 1.24-.5 1.28h-3.28a2.53 2.53 0 0 1-2.09-.86c-.45-.46-.87-.95-1.3-1.43-.18-.2-.37-.38-.6-.52-.44-.3-.83-.2-1.09.26-.26.48-.32 1-.34 1.53-.04.78-.27.98-1.05 1.02a8.4 8.4 0 0 1-4.69-1.01 10.35 10.35 0 0 1-3.15-2.96 39.82 39.82 0 0 1-4.16-7.4c-.26-.59-.07-.9.57-.91a91.2 91.2 0 0 1 3.21 0c.44 0 .73.25.9.66a19.92 19.92 0 0 0 2.17 4.03c.24.34.48.67.82.9.38.27.67.18.85-.24.11-.27.16-.56.19-.85.08-.99.1-1.98-.05-2.96-.1-.62-.44-1.02-1.06-1.13-.3-.06-.26-.18-.11-.36.26-.3.51-.5 1-.5h3.7c.6.12.72.38.8.97v4.11c0 .23.12.9.53 1.05.33.11.54-.15.74-.36a12.8 12.8 0 0 0 2.09-3.2c.25-.51.46-1.04.67-1.56.16-.4.4-.58.84-.58h3.56c.11 0 .22 0 .32.03.6.1.77.36.58.94-.3.92-.86 1.7-1.42 2.46-.6.82-1.23 1.62-1.82 2.45-.54.75-.5 1.13.18 1.79zM129 1318a16 16 0 1 0 0 32 16 16 0 0 0 0-32z"></path></defs><use xlink:href="#a" transform="translate(-113 -1318)"></use></svg><svg width="36" height="36" viewBox="0 0 36 36" id="vk--color" y="10052"><defs><path id="a" d="M282.13 1734.95c.84.82 1.73 1.59 2.48 2.5.33.4.65.8.89 1.27.34.66.03 1.4-.56 1.43h-3.69c-.95.08-1.71-.3-2.35-.96-.51-.52-.98-1.07-1.47-1.6-.2-.23-.42-.43-.67-.6-.5-.32-.94-.22-1.23.3-.29.54-.36 1.13-.38 1.72-.04.87-.3 1.1-1.18 1.14a9.44 9.44 0 0 1-5.28-1.14c-1.45-.82-2.57-2-3.55-3.32a44.8 44.8 0 0 1-4.67-8.33c-.3-.66-.08-1.01.64-1.02 1.2-.03 2.41-.02 3.61 0 .5 0 .82.28 1 .75a22.4 22.4 0 0 0 2.45 4.53c.27.38.54.75.93 1.02.43.29.75.2.95-.28.13-.3.19-.63.22-.96.1-1.1.1-2.22-.06-3.33-.1-.7-.5-1.14-1.19-1.27-.35-.07-.3-.2-.13-.4.3-.35.58-.56 1.13-.56h4.17c.66.13.8.42.9 1.08v4.63c-.01.26.13 1.02.59 1.18.36.13.6-.17.83-.4a14.4 14.4 0 0 0 2.35-3.6c.28-.58.52-1.17.76-1.76.17-.44.44-.66.94-.65h4.01c.12 0 .24 0 .36.03.67.11.86.4.65 1.06-.33 1.04-.97 1.9-1.6 2.77-.67.92-1.38 1.82-2.04 2.75-.61.85-.57 1.28.2 2.02zM273 1715a18 18 0 1 0 0 36 18 18 0 0 0 0-36z"></path></defs><use fill="#2e87e1" xlink:href="#a" transform="translate(-255 -1715)"></use></svg><svg width="32" height="32" viewBox="0 0 32 32" id="youtube" y="10088"><defs><path id="a" d="M312.27 1330.6c.35 0 .52-.29.52-.84v-2.53c0-.56-.17-.84-.52-.84s-.52.28-.52.84v2.53c0 .55.17.83.52.83zm-4.4 11.45v-6.87h1.3v-1.12h-3.76v1.12h1.26v6.87zm11.1-5.06c.37 0 .55.28.55.83v.55h-1.08v-.55c0-.55.18-.83.54-.83zm-1.26 4.53c.31.4.74.6 1.3.6a1.5 1.5 0 0 0 1.56-1.28c.01-.11.03-.35.03-.7v-.16h-1.1c0 .44-.02.68-.03.73-.06.3-.22.44-.48.44-.37 0-.55-.28-.55-.83v-1.05h2.16v-1.24c0-.63-.11-1.1-.34-1.4-.3-.4-.73-.6-1.27-.6-.55 0-.98.2-1.3.6-.22.3-.33.77-.33 1.4v2.09c0 .63.12 1.1.35 1.4zm-8.3.17c.12.3.36.44.7.44.4 0 .8-.24 1.24-.73v.65h1.08v-5.96h-1.08v4.55c-.24.34-.47.5-.69.5-.14 0-.22-.08-.25-.24v-4.81h-1.09v4.71c0 .42.04.7.1.89zm5.03-4.44c.18-.17.36-.26.54-.26.3 0 .47.28.47.81v2.54c0 .54-.16.8-.47.8-.18 0-.36-.08-.54-.26zm0 4.22c.36.45.73.66 1.11.66.43 0 .72-.23.86-.67.08-.25.11-.65.11-1.2v-2.37c0-.56-.03-.96-.1-1.2-.15-.44-.44-.67-.87-.67-.4 0-.76.22-1.11.65v-2.61h-1.08v7.99h1.08zm-7.97-18.04h1.28l.85 3.17.83-3.17h1.22l-1.45 4.8v3.27h-1.21v-3.27c-.11-.58-.35-1.43-.74-2.55l-.78-2.25zm5.8 1.98c.55 0 .97.2 1.27.62.23.3.34.77.34 1.42v2.1c0 .64-.1 1.12-.34 1.42-.3.4-.72.61-1.27.61-.54 0-.97-.2-1.27-.61-.23-.3-.34-.78-.34-1.42v-2.1c0-.65.11-1.12.34-1.42.3-.41.73-.62 1.27-.62zm2.5.07h1.1v4.43l.01.43c.02.17.1.25.26.25.21 0 .44-.17.68-.5v-4.6h1.1v6.01h-1.1v-.66c-.43.5-.84.74-1.24.74-.35 0-.6-.14-.7-.44-.06-.19-.1-.47-.1-.9zm-1.77 19.1c-2.23 0-4.47 0-6.69-.25-.93-.1-1.7-.8-1.92-1.76-.32-1.35-.32-2.83-.32-4.22 0-1.39 0-2.87.32-4.22.22-.95 1-1.65 1.93-1.75 2.21-.25 4.45-.25 6.68-.25 2.23 0 4.47 0 6.69.25.93.1 1.7.8 1.93 1.75.3 1.35.3 2.83.3 4.22 0 1.4 0 2.87-.3 4.22-.23.95-1 1.65-1.94 1.76-2.21.24-4.45.25-6.68.24zm0 5.42a16 16 0 1 0 0-32 16 16 0 0 0 0 32z"></path></defs><use xlink:href="#a" transform="translate(-297 -1318)"></use></svg></svg>