<svg xmlns="http://www.w3.org/2000/svg" xmlns:xlink="http://www.w3.org/1999/xlink" width="52" height="52" viewBox="0 0 52 52"><defs><path id="pkuva" d="M508 1490.38c-1.05.38-2.37.74-3.93.94.26 1.5.21 3.8-1.67 5.98a1.3 1.3 0 0 1-1 .45c-.35 0-.69-.15-.93-.4-1.61-1.65-4.66-4.38-6.47-5.17-1.81.8-4.85 3.51-6.46 5.17a1.31 1.31 0 0 1-1.93-.06 7.05 7.05 0 0 1-1.68-5.98 18.8 18.8 0 0 1-2.77-.57c.12.03-1.6-.83-1.48-.8a16.12 16.12 0 0 0-9.26 14.81c.02 4.86 2.71 10 7.08 13.04 3.97 2.77 9.23 3.97 15.2 4.18-.43.02 5.58-.54 5.14-.54 6.5 0 8.6-1.62 12.86-4.6 4.38-3.04 6.7-7.22 6.71-12.08.03-9.74-6.24-13.23-9.4-14.37z"/><path id="pkuvb" d="M502.34 1488.95c1.42-.07 5.9-.93 6.91-1.21-4.45-1.5-8.37-2.6-8.41-2.6-.36 0-.69-.13-.93-.37a1.24 1.24 0 0 1-.4-.9v-.4c-.25-.02-.4-.01-.4-.01-.35 0-3.4 1.63-3.65 1.4a1.24 1.24 0 0 1-.39-.9l-.02-4.19c-.01-1.07-.05-1.92.63-2.6.36-.37.83-.56 1.43-.67l-.24-.34-1.2-1.96c-2.62 0-2.91 1.9-2.92 1.96l-.35 8.61c0 .34-.54.13-.8.36-.24.24-2.07-.27-2.41-.27-.05 0-4.95 1.44-10 3.39.47.06 5.62 1 6.12 1.03.43.02 1.17-.1 1.4.27.22.36.24.8.06 1.18-.04.08-.83 1.83.05 3.75 1.64-1.57 4.64-4.2 6.8-4.85.26-.08.52-.07.76 0 2.17.65 5.16 3.29 6.81 4.85.89-1.95.06-3.72.04-3.74-.18-.38-.16-.82.07-1.18a1.3 1.3 0 0 1 1.04-.61z"/><path id="pkuvc" d="M491.6 1485.22c.35 0 .69-.12.93-.36.25-.24.4-.56.4-.9l-.01-7.49c.01-.06-.04-1.98 1.86-1.98h.9l1.43 2.01c-.6.1-1.07.3-1.43.67-.68.68-.64 1.53-.63 2.6l.02 4.2c0 .33.14.65.4.89.24.23.57.36.92.36.05 0 5.09-.05 10.97 2.7-1.2.46-2.9.92-5.02 1.03a1.3 1.3 0 0 0-1.05.6c-.22.37-.24.81-.06 1.19.01.02.85 1.8-.04 3.74-1.65-1.56-4.64-4.2-6.8-4.85-.25-.07-.51-.08-.77 0-2.16.65-5.16 3.28-6.8 4.85a4.76 4.76 0 0 1-.05-3.75c.18-.38.16-.82-.06-1.18a1.3 1.3 0 0 0-1.05-.61c-2.1-.1-3.8-.57-5.01-1.03a27.78 27.78 0 0 1 10.95-2.7zm19.1 31.62c-4.27 2.97-10.2 4.61-16.7 4.61s-12.43-1.64-16.7-4.61c-4.38-3.05-6.7-7.23-6.71-12.09-.03-9.75 6.26-13.24 9.42-14.38 1.05.38 2.37.74 3.92.94-.26 1.5-.2 3.8 1.68 5.98a1.3 1.3 0 0 0 .99.45c.36 0 .7-.14.94-.4 1.6-1.65 4.65-4.37 6.46-5.16 1.81.8 4.86 3.52 6.47 5.17a1.31 1.31 0 0 0 1.93-.05 7.04 7.04 0 0 0 1.67-5.98c1.56-.2 2.88-.56 3.93-.94 3.17 1.14 9.44 4.63 9.41 14.37-.01 4.86-2.33 9.04-6.7 12.09zm.28-27.93a1.24 1.24 0 0 0-.17-2.05 31.64 31.64 0 0 0-13.15-4.11v-3.78c.47-.07 1.39-.07 1.83-.07.48 0 .93-.26 1.15-.67.22-.41.2-.92-.08-1.3l-3.14-4.42a1.3 1.3 0 0 0-1.06-.54h-1.58c-2.36 0-4.31 1.8-4.44 4.05V1482.75a31.6 31.6 0 0 0-13.15 4.1c-.37.21-.61.6-.63 1.02-.02.4.16.79.47 1.04-3.87 1.97-9.06 6.38-9.03 15.85.02 5.62 2.78 10.64 7.79 14.12 4.7 3.28 11.17 5.09 18.21 5.09 7.04 0 13.5-1.8 18.21-5.09 5-3.48 7.77-8.5 7.79-14.12.03-9.46-5.15-13.87-9.03-15.85z"/></defs><g><g opacity=".2" transform="translate(-468 -1472)"><use fill="#3dad4b" xlink:href="#pkuva"/></g><g opacity=".4" transform="translate(-468 -1472)"><use fill="#3dad4b" xlink:href="#pkuvb"/></g><g transform="translate(-468 -1472)"><use fill="#3dad4b" xlink:href="#pkuvc"/></g></g></svg>