<svg xmlns="http://www.w3.org/2000/svg" xmlns:xlink="http://www.w3.org/1999/xlink" width="32" height="32" viewBox="0 0 32 32"><defs><path id="1s14a" d="M274.14 1330.34v.48c0 4.86-3.7 10.47-10.47 10.47-2.08 0-4.02-.6-5.65-1.65a7.46 7.46 0 0 0 5.46-1.53 3.69 3.69 0 0 1-3.44-2.55 3.71 3.71 0 0 0 1.66-.07 3.68 3.68 0 0 1-2.95-3.6v-.05c.5.27 1.06.44 1.66.46a3.68 3.68 0 0 1-1.14-4.92 10.46 10.46 0 0 0 7.6 3.85 3.68 3.68 0 0 1 6.27-3.36 7.35 7.35 0 0 0 2.34-.9 3.7 3.7 0 0 1-1.62 2.04 7.32 7.32 0 0 0 2.11-.58 7.4 7.4 0 0 1-1.83 1.9zM267 1318c-8.82 0-16 7.18-16 16s7.18 16 16 16 16-7.18 16-16-7.18-16-16-16z"/></defs><g><g transform="translate(-251 -1318)"><use xlink:href="#1s14a"/></g></g></svg>