<svg xmlns="http://www.w3.org/2000/svg" xmlns:xlink="http://www.w3.org/1999/xlink" width="32" height="32" viewBox="0 0 32 32"><defs><path id="oc94a" d="M137.12 1335.73c.74.73 1.53 1.41 2.2 2.22.3.35.58.72.79 1.13.3.6.03 1.24-.5 1.28h-3.28a2.53 2.53 0 0 1-2.09-.86c-.45-.46-.87-.95-1.3-1.43-.18-.2-.37-.38-.6-.52-.44-.3-.83-.2-1.09.26-.26.48-.32 1-.34 1.53-.04.78-.27.98-1.05 1.02a8.4 8.4 0 0 1-4.69-1.01 10.35 10.35 0 0 1-3.15-2.96 39.82 39.82 0 0 1-4.16-7.4c-.26-.59-.07-.9.57-.91a91.2 91.2 0 0 1 3.21 0c.44 0 .73.25.9.66a19.92 19.92 0 0 0 2.17 4.03c.24.34.48.67.82.9.38.27.67.18.85-.24.11-.27.16-.56.19-.85.08-.99.1-1.98-.05-2.96-.1-.62-.44-1.02-1.06-1.13-.3-.06-.26-.18-.11-.36.26-.3.51-.5 1-.5h3.7c.6.12.72.38.8.97v4.11c0 .23.12.9.53 1.05.33.11.54-.15.74-.36a12.8 12.8 0 0 0 2.09-3.2c.25-.51.46-1.04.67-1.56.16-.4.4-.58.84-.58h3.56c.11 0 .22 0 .32.03.6.1.77.36.58.94-.3.92-.86 1.7-1.42 2.46-.6.82-1.23 1.62-1.82 2.45-.54.75-.5 1.13.18 1.79zM129 1318a16 16 0 1 0 0 32 16 16 0 0 0 0-32z"/></defs><g><g transform="translate(-113 -1318)"><use xlink:href="#oc94a"/></g></g></svg>