<svg xmlns="http://www.w3.org/2000/svg" xmlns:xlink="http://www.w3.org/1999/xlink" width="32" height="32" viewBox="0 0 32 32"><defs><path id="q6r5a" d="M312.27 1330.6c.35 0 .52-.29.52-.84v-2.53c0-.56-.17-.84-.52-.84s-.52.28-.52.84v2.53c0 .55.17.83.52.83zm-4.4 11.45v-6.87h1.3v-1.12h-3.76v1.12h1.26v6.87zm11.1-5.06c.37 0 .55.28.55.83v.55h-1.08v-.55c0-.55.18-.83.54-.83zm-1.26 4.53c.31.4.74.6 1.3.6a1.5 1.5 0 0 0 1.56-1.28c.01-.11.03-.35.03-.7v-.16h-1.1c0 .44-.02.68-.03.73-.06.3-.22.44-.48.44-.37 0-.55-.28-.55-.83v-1.05h2.16v-1.24c0-.63-.11-1.1-.34-1.4-.3-.4-.73-.6-1.27-.6-.55 0-.98.2-1.3.6-.22.3-.33.77-.33 1.4v2.09c0 .63.12 1.1.35 1.4zm-8.3.17c.12.3.36.44.7.44.4 0 .8-.24 1.24-.73v.65h1.08v-5.96h-1.08v4.55c-.24.34-.47.5-.69.5-.14 0-.22-.08-.25-.24v-4.81h-1.09v4.71c0 .42.04.7.1.89zm5.03-4.44c.18-.17.36-.26.54-.26.3 0 .47.28.47.81v2.54c0 .54-.16.8-.47.8-.18 0-.36-.08-.54-.26zm0 4.22c.36.45.73.66 1.11.66.43 0 .72-.23.86-.67.08-.25.11-.65.11-1.2v-2.37c0-.56-.03-.96-.1-1.2-.15-.44-.44-.67-.87-.67-.4 0-.76.22-1.11.65v-2.61h-1.08v7.99h1.08zm-7.97-18.04h1.28l.85 3.17.83-3.17h1.22l-1.45 4.8v3.27h-1.21v-3.27c-.11-.58-.35-1.43-.74-2.55l-.78-2.25zm5.8 1.98c.55 0 .97.2 1.27.62.23.3.34.77.34 1.42v2.1c0 .64-.1 1.12-.34 1.42-.3.4-.72.61-1.27.61-.54 0-.97-.2-1.27-.61-.23-.3-.34-.78-.34-1.42v-2.1c0-.65.11-1.12.34-1.42.3-.41.73-.62 1.27-.62zm2.5.07h1.1v4.43l.01.43c.02.17.1.25.26.25.21 0 .44-.17.68-.5v-4.6h1.1v6.01h-1.1v-.66c-.43.5-.84.74-1.24.74-.35 0-.6-.14-.7-.44-.06-.19-.1-.47-.1-.9zm-1.77 19.1c-2.23 0-4.47 0-6.69-.25-.93-.1-1.7-.8-1.92-1.76-.32-1.35-.32-2.83-.32-4.22 0-1.39 0-2.87.32-4.22.22-.95 1-1.65 1.93-1.75 2.21-.25 4.45-.25 6.68-.25 2.23 0 4.47 0 6.69.25.93.1 1.7.8 1.93 1.75.3 1.35.3 2.83.3 4.22 0 1.4 0 2.87-.3 4.22-.23.95-1 1.65-1.94 1.76-2.21.24-4.45.25-6.68.24zm0 5.42a16 16 0 1 0 0-32 16 16 0 0 0 0 32z"/></defs><g><g transform="translate(-297 -1318)"><use xlink:href="#q6r5a"/></g></g></svg>