<?xml version="1.0" encoding="UTF-8"?>
<!DOCTYPE svg PUBLIC "-//W3C//DTD SVG 1.1//EN" "http://www.w3.org/Graphics/SVG/1.1/DTD/svg11.dtd">
<!-- Creator: CorelDRAW 2018 (64-Bit) -->
<svg xmlns="http://www.w3.org/2000/svg" xml:space="preserve" width="111.375mm" height="31.7662mm" version="1.1" style="shape-rendering:geometricPrecision; text-rendering:geometricPrecision; image-rendering:optimizeQuality; fill-rule:evenodd; clip-rule:evenodd"
viewBox="0 0 14176.41 4043.37"
 xmlns:xlink="http://www.w3.org/1999/xlink">
 <defs>
  <style type="text/css">
   <![CDATA[
    .fil0 {fill:#00B052}
    .fil1 {fill:white;fill-rule:nonzero}
   ]]>
  </style>
 </defs>
 <g id="Слой_x0020_1">
  <metadata id="CorelCorpID_0Corel-Layer"/>
  <path class="fil0" d="M14176.41 847.45l0 -847.45 -14176.41 0 0 847.45c365.69,261.93 604.22,690.13 604.22,1174.23 0,484.14 -238.53,912.3 -604.22,1174.27l0 847.41 14176.41 0 0 -847.41c-365.69,-261.97 -604.17,-690.13 -604.17,-1174.27 0,-484.1 238.48,-912.3 604.17,-1174.23z"/>
  <polygon class="fil1" points="2169.65,1600.48 2169.65,2706.42 1746.3,2706.42 1746.3,1282.97 2763.68,1282.97 2763.68,1600.48 "/>
  <path class="fil1" d="M3345.44 1591.84l0 358.56 62.64 0c162.01,0 244.09,-58.33 244.09,-177.1 0,-103.72 -69.1,-181.46 -200.89,-181.46l-105.84 0zm-421.2 1114.55l0 -1423.43 585.36 0c181.42,0 319.68,47.5 414.73,142.57 97.22,92.91 144.72,207.36 144.72,341.26 0,136.09 -47.5,252.71 -144.72,345.62 -95.06,92.85 -224.66,140.41 -388.82,140.41l-187.92 0 0 453.57 -423.35 0z"/>
  <polygon class="fil1" points="5554.96,2706.4 5133.76,2706.4 5133.76,1984.99 5125.09,1984.99 4278.39,2738.83 4230.85,2738.83 4230.85,1282.97 4654.24,1282.97 4654.24,2000.12 4662.85,2000.12 5505.29,1246.24 5554.96,1246.24 "/>
  <path class="fil1" d="M6677.74 1583.19l-254.88 0 -38.89 451.46c-19.45,194.39 -43.2,330.5 -71.27,406.07 -58.32,157.69 -177.14,257.07 -352.08,300.27 -32.42,8.62 -64.84,15.08 -101.52,19.45l-155.56 -285.14c101.54,-21.6 168.49,-53.97 203.06,-95.06 36.73,-41.04 58.33,-112.3 66.95,-211.68 32.42,-410.37 58.33,-706.28 73.46,-885.59l1056.26 0 0 1423.44 -423.39 0c0,-123.12 0,-311.05 -2.15,-559.41l0 -563.81z"/>
  <path class="fil1" d="M7789.54 2095.13l0 311.05 196.54 0c101.52,0 168.47,-60.49 168.47,-155.56 0,-95.01 -75.57,-155.49 -179.26,-155.49l-185.76 0zm-423.4 611.26l0 -1425.58 423.4 0 0 531.34 231.11 0c192.24,0 341.26,56.17 416.88,125.33 36.73,32.37 66.95,73.42 88.55,118.77 45.35,92.91 51.86,151.19 51.86,220.34 0,129.59 -45.39,233.26 -136.09,313.2 -90.7,77.77 -203.06,116.61 -339.11,116.61l-736.6 0z"/>
  <path class="fil1" d="M10925.58 1578.87c0,79.92 41.04,129.63 110.15,129.63 71.31,0 116.66,-54.02 116.66,-129.63 0,-69.12 -45.35,-118.82 -116.66,-118.82 -66.95,0 -110.15,51.87 -110.15,118.82zm477.37 645.85l-723.62 0 0 -215.99 723.62 0 0 215.99zm-86.4 -883.44c71.27,62.64 105.8,144.72 105.8,241.89 0,198.74 -153.35,337 -386.62,337 -241.94,0 -390.93,-138.26 -390.93,-337 0,-97.17 36.68,-179.26 107.99,-241.89 71.27,-64.8 166.32,-97.22 282.94,-97.22 118.81,0 211.68,32.42 280.82,97.22zm-1561.69 1365.11l-423.35 0 0 -1460.13 49.67 0 743.05 704.13 8.63 0 0 -667.45 423.34 0 0 1455.86 -47.5 0 -747.37 -732.23 -6.47 0 0 699.81z"/>
  <polygon class="fil1" points="12678.04,2706.4 12678.04,2429.94 12383.12,2429.94 12383.12,1259.22 12337.72,1259.22 11653.03,1563.75 11653.03,1905.07 11985.68,1768.96 11985.68,2429.94 11653.03,2429.94 11653.03,2706.4 "/>
 </g>
</svg>
